<?xml version="1.0" encoding="UTF-8" standalone="no"?>
<!-- Created with Inkscape (http://www.inkscape.org/) -->

<svg
   xmlns:dc="http://purl.org/dc/elements/1.1/"
   xmlns:cc="http://creativecommons.org/ns#"
   xmlns:rdf="http://www.w3.org/1999/02/22-rdf-syntax-ns#"
   xmlns:svg="http://www.w3.org/2000/svg"
   xmlns="http://www.w3.org/2000/svg"
   xmlns:sodipodi="http://sodipodi.sourceforge.net/DTD/sodipodi-0.dtd"
   xmlns:inkscape="http://www.inkscape.org/namespaces/inkscape"
   width="22.480585mm"
   height="22.481667mm"
   viewBox="0 0 22.480585 22.481667"
   version="1.1"
   id="svg4716"
   inkscape:version="0.92.4 (5da689c313, 2019-01-14)"
   sodipodi:docname="clear-day.svg">
  <defs
     id="defs4710" />
  <sodipodi:namedview
     id="base"
     pagecolor="#ffffff"
     bordercolor="#666666"
     borderopacity="1.0"
     inkscape:pageopacity="0.0"
     inkscape:pageshadow="2"
     inkscape:zoom="0.35"
     inkscape:cx="-347.517"
     inkscape:cy="-311.80067"
     inkscape:document-units="mm"
     inkscape:current-layer="layer1"
     showgrid="false"
     fit-margin-top="0"
     fit-margin-left="0"
     fit-margin-right="0"
     fit-margin-bottom="0"
     inkscape:window-width="1920"
     inkscape:window-height="1017"
     inkscape:window-x="-8"
     inkscape:window-y="-8"
     inkscape:window-maximized="1" />
  <metadata
     id="metadata4713">
    <rdf:RDF>
      <cc:Work
         rdf:about="">
        <dc:format>image/svg+xml</dc:format>
        <dc:type
           rdf:resource="http://purl.org/dc/dcmitype/StillImage" />
        <dc:title></dc:title>
      </cc:Work>
    </rdf:RDF>
  </metadata>
  <g
     inkscape:label="Layer 1"
     inkscape:groupmode="layer"
     id="layer1"
     transform="translate(-74.938279,-43.854404)">
    <path
       id="path4555"
       d="m 86.179121,50.879937 c -2.322814,0 -4.215314,1.89249 -4.215314,4.21531 0,2.32281 1.8925,4.21531 4.215314,4.21531 2.322813,0 4.21531,-1.8925 4.21531,-4.21531 0,-2.32282 -1.892497,-4.21531 -4.21531,-4.21531 z m 10.819301,3.53472 -4.158233,-2.07692 1.47097,-4.40853 c 0.197599,-0.59716 -0.368835,-1.1636 -0.961616,-0.96161 l -4.408517,1.47096 -2.081307,-4.16263 c -0.281023,-0.56203 -1.080174,-0.56203 -1.361198,0 l -2.076922,4.15824 -4.412905,-1.47096 c -0.597173,-0.1976 -1.163602,0.36884 -0.961624,0.96161 l 1.470975,4.40851 -4.158231,2.08133 c -0.562047,0.28102 -0.562047,1.08016 0,1.36119 l 4.158231,2.07692 -1.470975,4.41291 c -0.19759,0.59716 0.368845,1.16359 0.961624,0.96161 l 4.408518,-1.47097 2.076922,4.15824 c 0.281016,0.56202 1.080167,0.56202 1.361191,0 l 2.076919,-4.15824 4.408517,1.47097 c 0.597174,0.19759 1.163602,-0.36884 0.961615,-0.96161 l -1.470966,-4.40853 4.15823,-2.07691 c 0.570823,-0.28542 0.570823,-1.08456 0.0088,-1.36558 z m -6.845495,4.65441 c -2.191083,2.19107 -5.756536,2.19107 -7.947616,0 -2.191095,-2.1911 -2.191095,-5.75654 0,-7.94764 2.19108,-2.19108 5.756533,-2.19108 7.947616,0 2.191087,2.1911 2.191087,5.75654 0,7.94764 z"
       inkscape:connector-curvature="0"
       style="fill:#fe7f01;stroke-width:0.04390952" />
  </g>
</svg>
