<?xml version="1.0" encoding="UTF-8" standalone="no"?>
<!-- Created with Inkscape (http://www.inkscape.org/) -->

<svg
   xmlns:dc="http://purl.org/dc/elements/1.1/"
   xmlns:cc="http://creativecommons.org/ns#"
   xmlns:rdf="http://www.w3.org/1999/02/22-rdf-syntax-ns#"
   xmlns:svg="http://www.w3.org/2000/svg"
   xmlns="http://www.w3.org/2000/svg"
   xmlns:sodipodi="http://sodipodi.sourceforge.net/DTD/sodipodi-0.dtd"
   xmlns:inkscape="http://www.inkscape.org/namespaces/inkscape"
   width="22.669613mm"
   height="22.603252mm"
   viewBox="0 0 22.669613 22.603252"
   version="1.1"
   id="svg5282"
   inkscape:version="0.92.4 (5da689c313, 2019-01-14)"
   sodipodi:docname="clear-night.svg">
  <defs
     id="defs5276" />
  <sodipodi:namedview
     id="base"
     pagecolor="#ffffff"
     bordercolor="#666666"
     borderopacity="1.0"
     inkscape:pageopacity="0.0"
     inkscape:pageshadow="2"
     inkscape:zoom="0.35"
     inkscape:cx="-418.58836"
     inkscape:cy="-22.999464"
     inkscape:document-units="mm"
     inkscape:current-layer="layer1"
     showgrid="false"
     fit-margin-top="0"
     fit-margin-left="0"
     fit-margin-right="0"
     fit-margin-bottom="0"
     inkscape:window-width="1920"
     inkscape:window-height="1017"
     inkscape:window-x="-8"
     inkscape:window-y="-8"
     inkscape:window-maximized="1" />
  <metadata
     id="metadata5279">
    <rdf:RDF>
      <cc:Work
         rdf:about="">
        <dc:format>image/svg+xml</dc:format>
        <dc:type
           rdf:resource="http://purl.org/dc/dcmitype/StillImage" />
        <dc:title></dc:title>
      </cc:Work>
    </rdf:RDF>
  </metadata>
  <g
     inkscape:label="Layer 1"
     inkscape:groupmode="layer"
     id="layer1"
     transform="translate(-93.742575,-120.14481)">
    <g
       id="g841"
       transform="matrix(0.75693355,0,0,0.75693355,66.697841,120.02521)">
      <path
         id="path836"
         d="m 45.917363,29.990913 c -0.05731,-0.01134 -0.385526,-0.05828 -0.729374,-0.104326 -1.209922,-0.16202 -2.93048,-0.780958 -3.987352,-1.434376 -3.713267,-2.295747 -5.775731,-6.282021 -5.434743,-10.504117 0.131395,-1.626916 0.474373,-2.887312 1.155536,-4.246432 1.00594,-2.007145 2.778643,-3.8112194 4.778635,-4.8631949 1.661683,-0.8740283 3.428978,-1.3131775 5.293996,-1.3154879 0.836291,-0.00102 2.081754,0.1589873 2.236417,0.2873442 0.05556,0.04612 0.08871,0.1724061 0.07682,0.2927395 -0.01791,0.1812202 -0.120731,0.281039 -0.715559,0.6946735 -0.382052,0.2656743 -1.00723,0.7986902 -1.389284,1.1844802 -1.23616,1.2482514 -1.969732,2.5627264 -2.406274,4.3117634 -0.179458,0.719011 -0.254209,2.576717 -0.134824,3.35061 0.436323,2.828371 2.285233,5.425844 4.769887,6.701063 1.687875,0.866285 3.459113,1.184895 5.344769,0.961419 0.676894,-0.08022 0.745725,-0.07744 0.870159,0.03518 0.07431,0.06726 0.13512,0.194782 0.13512,0.283393 0,0.196353 -0.643863,0.96055 -1.260341,1.495889 -2.256075,1.959142 -4.778968,2.921503 -7.596355,2.897641 -0.496669,-0.0042 -0.949922,-0.01691 -1.007231,-0.02826 z"
         style="fill:#004385;stroke-width:0.06946427"
         inkscape:connector-curvature="0" />
      <path
         id="path834"
         d="m 60.538738,15.159532 c -0.381581,-0.766796 -0.756305,-1.451774 -0.832715,-1.522175 -0.07641,-0.0704 -0.763806,-0.439886 -1.527546,-0.821079 l -1.388618,-0.693077 1.475238,-0.738259 1.475237,-0.738257 0.729901,-1.4585404 c 0.401446,-0.802195 0.745247,-1.4585396 0.764001,-1.4585396 0.01875,0 0.362557,0.6563446 0.764003,1.4585396 l 0.729901,1.4585404 1.475237,0.738257 1.475237,0.738259 -1.388617,0.693339 c -0.76374,0.381338 -1.446911,0.744728 -1.51816,0.807532 -0.07125,0.0628 -0.446739,0.747668 -0.834427,1.521915 l -0.704886,1.407719 z"
         style="fill:#fe7f01;stroke-width:0.06946427"
         inkscape:connector-curvature="0" />
      <path
         id="path4531"
         d="M 53.19321,4.292093 52.796052,3.4942197 51.961617,3.0759329 C 51.502681,2.8458722 51.127185,2.6424967 51.127185,2.623982 c 0,-0.018507 0.375496,-0.2218923 0.834432,-0.4519501 L 52.796052,1.7537415 53.19321,0.95587082 c 0.218438,-0.4388286 0.414047,-0.79787071 0.434689,-0.79787071 0.02064,0 0.216248,0.35904211 0.434686,0.79787071 l 0.397158,0.79787068 0.834434,0.4182904 c 0.45894,0.2300578 0.834435,0.4334354 0.834435,0.4519501 0,0.018507 -0.375495,0.2218902 -0.834435,0.4519509 L 54.459743,3.4942197 54.062585,4.292093 c -0.218438,0.4388286 -0.414048,0.7978707 -0.434686,0.7978707 -0.02064,0 -0.216251,-0.3590421 -0.434689,-0.7978707 z"
         style="fill:#fe7f01;stroke-width:0.06946427"
         inkscape:connector-curvature="0" />
    </g>
  </g>
</svg>
