<?xml version="1.0" encoding="UTF-8" standalone="no"?>
<!-- Created with Inkscape (http://www.inkscape.org/) -->

<svg
   xmlns:dc="http://purl.org/dc/elements/1.1/"
   xmlns:cc="http://creativecommons.org/ns#"
   xmlns:rdf="http://www.w3.org/1999/02/22-rdf-syntax-ns#"
   xmlns:svg="http://www.w3.org/2000/svg"
   xmlns="http://www.w3.org/2000/svg"
   xmlns:sodipodi="http://sodipodi.sourceforge.net/DTD/sodipodi-0.dtd"
   xmlns:inkscape="http://www.inkscape.org/namespaces/inkscape"
   width="22.681536mm"
   height="18.114269mm"
   viewBox="0 0 22.681536 18.114269"
   version="1.1"
   id="svg5857"
   inkscape:version="0.92.4 (5da689c313, 2019-01-14)"
   sodipodi:docname="cloudy.svg">
  <defs
     id="defs5851" />
  <sodipodi:namedview
     id="base"
     pagecolor="#ffffff"
     bordercolor="#666666"
     borderopacity="1.0"
     inkscape:pageopacity="0.0"
     inkscape:pageshadow="2"
     inkscape:zoom="0.98994949"
     inkscape:cx="39.73332"
     inkscape:cy="-116.36357"
     inkscape:document-units="mm"
     inkscape:current-layer="layer1"
     showgrid="false"
     fit-margin-top="0"
     fit-margin-left="0"
     fit-margin-right="0"
     fit-margin-bottom="0"
     inkscape:window-width="1920"
     inkscape:window-height="1017"
     inkscape:window-x="-8"
     inkscape:window-y="-8"
     inkscape:window-maximized="1" />
  <metadata
     id="metadata5854">
    <rdf:RDF>
      <cc:Work
         rdf:about="">
        <dc:format>image/svg+xml</dc:format>
        <dc:type
           rdf:resource="http://purl.org/dc/dcmitype/StillImage" />
        <dc:title></dc:title>
      </cc:Work>
    </rdf:RDF>
  </metadata>
  <g
     inkscape:label="Layer 1"
     inkscape:groupmode="layer"
     id="layer1"
     transform="translate(-21.852136,4.8889436)">
    <g
       id="g925"
       transform="matrix(0.90392094,0,0,0.90392094,-14.355565,-40.02585)">
      <path
         id="path921"
         d="m 48.194392,58.867518 c -0.632472,-0.10673 -1.264823,-0.39713 -1.767358,-0.81165 -1.391178,-1.14751 -1.731927,-3.19866 -0.789188,-4.75057 0.37018,-0.60939 1.064484,-1.20504 1.738518,-1.49151 l 0.30663,-0.13032 -0.02383,-0.654864 c -0.04748,-1.304962 0.295306,-2.274931 1.117968,-3.163482 0.551355,-0.595515 1.223379,-1.014559 1.994374,-1.243605 0.56279,-0.167192 1.447399,-0.207676 2.016806,-0.0923 1.135855,0.230154 2.127227,0.911766 2.814242,1.934919 0.132499,0.197325 0.260414,0.358774 0.284255,0.358774 0.02384,0 0.195073,-0.136845 0.380512,-0.3041 1.5706,-1.416597 3.968353,-0.891851 4.850775,1.06159 0.181361,0.401487 0.240204,0.743282 0.226936,1.318201 -0.0063,0.274781 0.002,0.521555 0.01862,0.548383 0.01659,0.02683 0.181643,0.06321 0.366804,0.08084 0.553632,0.05273 0.913065,0.154514 1.401403,0.396854 0.953087,0.47297 1.660839,1.34967 1.921214,2.37984 0.127873,0.50592 0.127386,1.31139 -0.0011,1.81378 -0.297821,1.16455 -1.153137,2.13236 -2.250219,2.54618 -0.685743,0.25866 -0.440643,0.25086 -7.694314,0.24496 -3.683298,-0.003 -6.794173,-0.0219 -6.913056,-0.0419 z"
         style="fill:#045192;stroke-width:0.04629345"
         inkscape:connector-curvature="0" />
      <path
         id="path4738"
         d="m 43.27197,50.020098 c -1.515078,-0.191807 -2.75777,-1.297875 -3.135232,-2.790541 -0.127695,-0.504967 -0.09919,-1.51587 0.05559,-1.971242 0.495035,-1.456455 1.754097,-2.476065 3.184419,-2.578797 0.210395,-0.01512 0.410792,-0.0504 0.445325,-0.07842 0.03453,-0.02802 0.108189,-0.238435 0.163678,-0.467588 0.382114,-1.577978 1.713477,-2.86508 3.300228,-3.190508 0.408469,-0.08377 1.232651,-0.09612 1.636868,-0.02453 1.371991,0.243008 2.565595,1.1647 3.152037,2.433976 0.08989,0.194552 0.186508,0.341271 0.22474,0.341271 0.03688,0 0.220512,-0.05151 0.408058,-0.114469 0.411036,-0.137979 1.101214,-0.223076 1.486129,-0.183233 1.537996,0.159203 2.750076,1.151221 3.220161,2.63552 0.142969,0.451424 0.177917,1.259657 0.07581,1.753091 -0.11488,0.555128 -0.131014,0.575051 -0.584383,0.721655 -0.216422,0.06999 -0.470464,0.164859 -0.564537,0.210833 l -0.171043,0.08359 -0.280076,-0.2593 c -0.394296,-0.36505 -1.134726,-0.845909 -1.636582,-1.06285 -0.799207,-0.34548 -1.872684,-0.537711 -2.648361,-0.474252 -1.466589,0.119982 -2.677866,0.676448 -3.692482,1.69634 -0.829153,0.833464 -1.368209,1.839782 -1.589404,2.96712 l -0.07948,0.405068 -1.323704,-0.0059 c -0.728036,-0.0032 -1.469526,-0.02432 -1.647755,-0.04688 z"
         style="fill:#237ebb;stroke-width:0.04629345"
         inkscape:connector-curvature="0" />
    </g>
  </g>
</svg>
