<?xml version="1.0" encoding="UTF-8" standalone="no"?>
<!-- Created with Inkscape (http://www.inkscape.org/) -->

<svg
   xmlns:dc="http://purl.org/dc/elements/1.1/"
   xmlns:cc="http://creativecommons.org/ns#"
   xmlns:rdf="http://www.w3.org/1999/02/22-rdf-syntax-ns#"
   xmlns:svg="http://www.w3.org/2000/svg"
   xmlns="http://www.w3.org/2000/svg"
   xmlns:sodipodi="http://sodipodi.sourceforge.net/DTD/sodipodi-0.dtd"
   xmlns:inkscape="http://www.inkscape.org/namespaces/inkscape"
   width="22.678999mm"
   height="21.184036mm"
   viewBox="0 0 22.678999 21.184036"
   version="1.1"
   id="svg5857"
   inkscape:version="0.92.4 (5da689c313, 2019-01-14)"
   sodipodi:docname="fog.svg">
  <defs
     id="defs5851" />
  <sodipodi:namedview
     id="base"
     pagecolor="#ffffff"
     bordercolor="#666666"
     borderopacity="1.0"
     inkscape:pageopacity="0.0"
     inkscape:pageshadow="2"
     inkscape:zoom="0.35"
     inkscape:cx="-137.21128"
     inkscape:cy="-498.27858"
     inkscape:document-units="mm"
     inkscape:current-layer="layer1"
     showgrid="false"
     fit-margin-top="0"
     fit-margin-left="0"
     fit-margin-right="0"
     fit-margin-bottom="0"
     inkscape:window-width="1920"
     inkscape:window-height="1017"
     inkscape:window-x="-8"
     inkscape:window-y="-8"
     inkscape:window-maximized="1" />
  <metadata
     id="metadata5854">
    <rdf:RDF>
      <cc:Work
         rdf:about="">
        <dc:format>image/svg+xml</dc:format>
        <dc:type
           rdf:resource="http://purl.org/dc/dcmitype/StillImage" />
        <dc:title></dc:title>
      </cc:Work>
    </rdf:RDF>
  </metadata>
  <g
     inkscape:label="Layer 1"
     inkscape:groupmode="layer"
     id="layer1"
     transform="translate(-19.294889,4.1869085)">
    <g
       id="g1005"
       transform="matrix(1.1351575,0,0,1.1351575,-20.08559,-91.974994)">
      <path
         id="path911"
         d="m 37.004889,95.951204 c -0.156696,-0.07304 -0.249792,-0.209637 -0.295865,-0.434137 -0.05297,-0.258127 -0.02459,-0.706225 0.05634,-0.889123 0.117368,-0.265288 0.06366,-0.259451 2.387513,-0.259451 2.304325,0 2.246406,-0.0059 2.389199,0.244591 0.105258,0.184666 0.10175,0.944512 -0.0054,1.114907 -0.174616,0.278337 -0.114598,0.271573 -2.384045,0.268644 -1.274786,-0.0017 -2.091072,-0.01891 -2.147968,-0.04543 z"
         style="fill:#237ebb;stroke-width:0.03969757"
         inkscape:connector-curvature="0" />
      <path
         id="path909"
         d="m 43.558244,95.962952 c -0.255548,-0.09615 -0.311353,-0.242842 -0.311353,-0.818418 0,-0.463347 0.0028,-0.47748 0.107142,-0.614421 l 0.107133,-0.140165 5.428074,-0.0127 c 6.038399,-0.01413 5.595374,-0.03516 5.719874,0.27152 0.08947,0.220383 0.07858,0.901058 -0.01734,1.084995 -0.147425,0.282643 0.209853,0.266094 -5.643243,0.261384 -2.923843,-0.0024 -5.349458,-0.01684 -5.390262,-0.03219 z"
         style="fill:#237ebb;stroke-width:0.03969757"
         inkscape:connector-curvature="0" />
      <path
         id="path907"
         d="m 35.284659,92.746483 c -0.495437,-0.02026 -0.593016,-0.15603 -0.593016,-0.825144 0,-0.432764 0.04355,-0.580879 0.209251,-0.711179 0.10003,-0.07867 0.340923,-0.08091 8.774738,-0.08148 l 8.671884,-6.49e-4 0.103667,0.0897 c 0.16993,0.147032 0.213938,0.297152 0.212759,0.725766 -0.0014,0.428559 -0.04599,0.58149 -0.212759,0.725766 l -0.103667,0.0897 h -8.378139 c -4.60798,3e-6 -8.516102,-0.0056 -8.684718,-0.01252 z"
         style="fill:#237ebb;stroke-width:0.03969757"
         inkscape:connector-curvature="0" />
      <path
         id="path4701"
         d="m 38.381231,88.914176 c -0.442771,-0.03039 -1.077275,-0.231008 -1.457213,-0.46074 -0.595635,-0.36016 -1.160919,-1.010888 -1.423545,-1.638722 -0.340308,-0.813543 -0.33559,-1.853356 0.01211,-2.67044 0.341695,-0.80298 0.96195,-1.423588 1.818104,-1.819159 0.176504,-0.08155 0.320866,-0.162172 0.320795,-0.179162 -7.9e-5,-0.01699 -0.02082,-0.199715 -0.04615,-0.406058 -0.153459,-1.251235 0.446016,-2.662417 1.489511,-3.506342 1.848606,-1.495066 4.546986,-1.076855 5.868702,0.909567 0.137357,0.206433 0.268974,0.375333 0.292486,0.375333 0.02351,0 0.171152,-0.115892 0.328094,-0.257537 0.623896,-0.563088 1.467306,-0.835307 2.254208,-0.727566 0.919296,0.125869 1.677502,0.627588 2.142928,1.418008 0.278965,0.473758 0.347196,0.748763 0.355128,1.431355 0.0079,0.680251 -0.004,0.659541 0.387958,0.664956 0.28578,0.004 0.829215,0.144734 1.164806,0.301767 0.754809,0.353197 1.412335,1.036001 1.730596,1.797118 0.250498,0.59907 0.323186,1.398892 0.187024,2.058069 -0.223574,1.082391 -1.011117,2.033496 -2.032574,2.454711 -0.7175,0.295874 -0.223463,0.276121 -6.955104,0.278097 -3.340183,9.5e-4 -6.237232,-0.0095 -6.43788,-0.02326 z"
         style="fill:#045192;stroke-width:0.04291919"
         inkscape:connector-curvature="0" />
    </g>
  </g>
</svg>
