<?xml version="1.0" encoding="UTF-8" standalone="no"?>
<!-- Created with Inkscape (http://www.inkscape.org/) -->

<svg
   xmlns:dc="http://purl.org/dc/elements/1.1/"
   xmlns:cc="http://creativecommons.org/ns#"
   xmlns:rdf="http://www.w3.org/1999/02/22-rdf-syntax-ns#"
   xmlns:svg="http://www.w3.org/2000/svg"
   xmlns="http://www.w3.org/2000/svg"
   xmlns:sodipodi="http://sodipodi.sourceforge.net/DTD/sodipodi-0.dtd"
   xmlns:inkscape="http://www.inkscape.org/namespaces/inkscape"
   width="22.431999mm"
   height="22.404684mm"
   viewBox="0 0 22.432 22.404684"
   version="1.1"
   id="svg5857"
   inkscape:version="0.92.4 (5da689c313, 2019-01-14)"
   sodipodi:docname="hail.svg">
  <defs
     id="defs5851" />
  <sodipodi:namedview
     id="base"
     pagecolor="#ffffff"
     bordercolor="#666666"
     borderopacity="1.0"
     inkscape:pageopacity="0.0"
     inkscape:pageshadow="2"
     inkscape:zoom="0.98994949"
     inkscape:cx="-12.238328"
     inkscape:cy="-78.584711"
     inkscape:document-units="mm"
     inkscape:current-layer="layer1"
     showgrid="false"
     fit-margin-top="0"
     fit-margin-left="0"
     fit-margin-right="0"
     fit-margin-bottom="0"
     inkscape:window-width="1920"
     inkscape:window-height="1017"
     inkscape:window-x="-8"
     inkscape:window-y="-8"
     inkscape:window-maximized="1" />
  <metadata
     id="metadata5854">
    <rdf:RDF>
      <cc:Work
         rdf:about="">
        <dc:format>image/svg+xml</dc:format>
        <dc:type
           rdf:resource="http://purl.org/dc/dcmitype/StillImage" />
        <dc:title></dc:title>
      </cc:Work>
    </rdf:RDF>
  </metadata>
  <g
     inkscape:label="Layer 1"
     inkscape:groupmode="layer"
     id="layer1"
     transform="translate(-35.602968,-0.81629717)">
    <g
       id="g987"
       transform="matrix(0.98639995,0,0,0.98639995,-95.386191,-31.860857)">
      <path
         id="path976"
         d="m 133.69733,55.772725 c -0.67928,-0.24213 -1.04304,-0.94761 -0.84314,-1.63522 0.3264,-1.12278 1.93755,-1.25951 2.44675,-0.20764 0.16139,0.33337 0.16137,0.85822 -4e-5,1.19164 -0.12553,0.25931 -0.4054,0.51228 -0.70547,0.63766 -0.21355,0.0892 -0.66664,0.0961 -0.8981,0.0136 z"
         style="fill:#237ebb;stroke-width:0.05245863"
         inkscape:connector-curvature="0" />
      <path
         id="path974"
         d="m 137.36172,55.736025 c -0.18644,-0.11369 -0.30951,-0.40697 -0.25759,-0.61386 0.0183,-0.0728 0.70354,-1.30493 1.52284,-2.73817 1.5298,-2.67615 1.60753,-2.7895 1.91287,-2.7895 0.37448,0 0.66671,0.32262 0.61841,0.68272 -0.0341,0.2541 -2.81579,5.15313 -3.06013,5.38937 -0.2096,0.20265 -0.47663,0.22783 -0.7364,0.0694 z"
         style="fill:#237ebb;stroke-width:0.05245863"
         inkscape:connector-curvature="0" />
      <path
         id="path972"
         d="m 142.12865,55.677325 c -0.37433,-0.18706 -0.60166,-0.48319 -0.69111,-0.90026 -0.0676,-0.31506 -0.0314,-0.55912 0.13054,-0.88091 0.22399,-0.44507 0.62052,-0.67922 1.15213,-0.68029 1.39905,-0.003 1.84403,1.86199 0.59306,2.48538 -0.38965,0.19417 -0.76328,0.18662 -1.18462,-0.0239 z"
         style="fill:#237ebb;stroke-width:0.05245863"
         inkscape:connector-curvature="0" />
      <path
         id="path970"
         d="m 145.99743,55.747725 c -0.20782,-0.14324 -0.25742,-0.23664 -0.25895,-0.48765 -0.001,-0.21376 0.13539,-0.47644 1.44688,-2.78031 0.79658,-1.39934 1.5088,-2.60887 1.58272,-2.68785 0.36398,-0.38893 1.00782,-0.13182 1.00782,0.40246 0,0.18348 -0.11139,0.41546 -0.69557,1.44865 -1.70825,3.02121 -2.30451,4.01996 -2.45189,4.10702 -0.18992,0.11219 -0.46634,0.11117 -0.63101,-0.002 z"
         style="fill:#237ebb;stroke-width:0.05245863"
         inkscape:connector-curvature="0" />
      <path
         id="path968"
         d="m 150.79884,55.713725 c -0.30933,-0.14435 -0.61718,-0.46637 -0.70751,-0.74007 -0.0359,-0.10889 -0.0555,-0.35252 -0.0444,-0.55082 0.0159,-0.2815 0.0529,-0.40861 0.17753,-0.61021 0.52159,-0.84366 1.82355,-0.78417 2.29423,0.10482 0.16086,0.30383 0.16046,0.91338 -8e-4,1.21804 -0.32345,0.61108 -1.09361,0.87014 -1.7191,0.57824 z"
         style="fill:#237ebb;stroke-width:0.05245863"
         inkscape:connector-curvature="0" />
      <path
         id="path966"
         d="m 135.30237,52.203625 c -0.16451,-0.0846 -0.31085,-0.28748 -0.34936,-0.48447 -0.0248,-0.12703 0.055,-0.33025 0.41379,-1.05381 0.39372,-0.79392 0.46557,-0.9064 0.62825,-0.9836 0.22432,-0.10645 0.30414,-0.10833 0.53324,-0.0126 0.2059,0.086 0.34396,0.31555 0.34013,0.56546 -0.002,0.10718 -0.15783,0.48272 -0.41017,0.9862 -0.31366,0.62585 -0.44773,0.84029 -0.58215,0.93114 -0.19478,0.13165 -0.38482,0.14877 -0.57373,0.0517 z"
         style="fill:#237ebb;stroke-width:0.05245863"
         inkscape:connector-curvature="0" />
      <path
         id="path964"
         d="m 143.90559,52.206625 c -0.204,-0.10941 -0.3447,-0.33997 -0.33896,-0.55544 0.003,-0.1297 0.13723,-0.45777 0.40299,-0.98829 0.39169,-0.78188 0.54624,-0.98379 0.80221,-1.04804 0.19564,-0.0491 0.49041,0.0787 0.6014,0.26072 0.18257,0.2994 0.13779,0.50089 -0.30011,1.35032 -0.22063,0.428 -0.45438,0.82818 -0.51942,0.88929 -0.14484,0.13606 -0.47743,0.18299 -0.64811,0.0914 z"
         style="fill:#237ebb;stroke-width:0.05245863"
         inkscape:connector-curvature="0" />
      <path
         id="path962"
         d="m 152.52359,52.197625 c -0.22484,-0.10129 -0.3346,-0.27719 -0.3346,-0.53623 0,-0.16609 0.0933,-0.40702 0.38842,-1.00352 0.483,-0.97608 0.67549,-1.1526 1.10305,-1.01149 0.26005,0.0858 0.39705,0.27895 0.39705,0.55974 0,0.18082 -0.0825,0.394 -0.38795,1.00275 -0.21337,0.42521 -0.44605,0.82716 -0.51706,0.89322 -0.16237,0.15104 -0.43621,0.19135 -0.64891,0.0955 z"
         style="fill:#237ebb;stroke-width:0.05245863"
         inkscape:connector-curvature="0" />
      <path
         id="path4886"
         d="m 136.26122,47.177755 c -0.45277,-0.0766 -1.1671,-0.36439 -1.56536,-0.63077 -0.72382,-0.48412 -1.40004,-1.32884 -1.65474,-2.0671 -0.64479,-1.86888 0.007,-3.8445 1.61838,-4.90539 0.21183,-0.13946 0.53199,-0.31598 0.71148,-0.39226 l 0.32635,-0.1387 -0.003,-0.90122 c -0.003,-0.78144 0.0127,-0.96047 0.11694,-1.34711 0.45614,-1.69169 1.77291,-3.041956 3.43043,-3.517694 0.48918,-0.140402 1.64524,-0.19657 2.17116,-0.105481 1.30433,0.225905 2.50732,1.029197 3.2459,2.167445 0.16381,0.25246 0.32299,0.45901 0.35373,0.45901 0.0307,0 0.21648,-0.15149 0.41276,-0.33665 1.03286,-0.974347 2.59387,-1.194342 3.89789,-0.549334 0.66526,0.329054 1.21859,0.897484 1.55182,1.594174 0.28025,0.58591 0.33435,0.84515 0.33942,1.62622 l 0.004,0.68196 0.44589,0.0401 c 1.12432,0.10106 1.95407,0.51042 2.75431,1.35887 0.61436,0.65136 0.95063,1.36402 1.08247,2.2941 0.18832,1.32845 -0.38707,2.82219 -1.42575,3.70135 -0.46793,0.39605 -0.81728,0.59399 -1.42979,0.81011 l -0.53534,0.18888 -7.79011,0.007 c -4.28456,0.004 -7.9111,-0.013 -8.05898,-0.038 z"
         style="fill:#045192;stroke-width:0.05245863"
         inkscape:connector-curvature="0" />
    </g>
  </g>
</svg>
