<?xml version="1.0" encoding="UTF-8" standalone="no"?>
<!-- Created with Inkscape (http://www.inkscape.org/) -->

<svg
   xmlns:dc="http://purl.org/dc/elements/1.1/"
   xmlns:cc="http://creativecommons.org/ns#"
   xmlns:rdf="http://www.w3.org/1999/02/22-rdf-syntax-ns#"
   xmlns:svg="http://www.w3.org/2000/svg"
   xmlns="http://www.w3.org/2000/svg"
   xmlns:sodipodi="http://sodipodi.sourceforge.net/DTD/sodipodi-0.dtd"
   xmlns:inkscape="http://www.inkscape.org/namespaces/inkscape"
   width="22.562mm"
   height="18.007856mm"
   viewBox="0 0 22.562001 18.007856"
   version="1.1"
   id="svg5857"
   inkscape:version="0.92.4 (5da689c313, 2019-01-14)"
   sodipodi:docname="partly-cloudy-day.svg">
  <defs
     id="defs5851" />
  <sodipodi:namedview
     id="base"
     pagecolor="#ffffff"
     bordercolor="#666666"
     borderopacity="1.0"
     inkscape:pageopacity="0.0"
     inkscape:pageshadow="2"
     inkscape:zoom="0.98994949"
     inkscape:cx="33.882848"
     inkscape:cy="-115.66801"
     inkscape:document-units="mm"
     inkscape:current-layer="layer1"
     showgrid="false"
     fit-margin-top="0"
     fit-margin-left="0"
     fit-margin-right="0"
     fit-margin-bottom="0"
     inkscape:window-width="1920"
     inkscape:window-height="1017"
     inkscape:window-x="-8"
     inkscape:window-y="-8"
     inkscape:window-maximized="1" />
  <metadata
     id="metadata5854">
    <rdf:RDF>
      <cc:Work
         rdf:about="">
        <dc:format>image/svg+xml</dc:format>
        <dc:type
           rdf:resource="http://purl.org/dc/dcmitype/StillImage" />
        <dc:title></dc:title>
      </cc:Work>
    </rdf:RDF>
  </metadata>
  <g
     inkscape:label="Layer 1"
     inkscape:groupmode="layer"
     id="layer1"
     transform="translate(-23.400073,4.5984967)">
    <g
       id="g939"
       transform="matrix(0.75096169,0,0,0.75096169,-30.945903,-31.340411)">
      <path
         id="path933"
         d="m 80.458642,59.523642 c -1.41485,-0.283881 -2.659607,-1.30644 -3.207403,-2.634864 -0.260789,-0.632415 -0.350184,-1.184467 -0.317588,-1.961209 0.02455,-0.585008 0.05244,-0.735984 0.222929,-1.206632 0.232188,-0.640986 0.60516,-1.226911 1.063276,-1.670361 0.43252,-0.41867 0.708202,-0.607208 1.278956,-0.874673 0.441571,-0.206926 0.466197,-0.227945 0.49665,-0.423913 0.06843,-0.440326 0.271213,-1.163837 0.417789,-1.490601 0.652424,-1.45448 2.030042,-2.588111 3.572482,-2.939769 0.61408,-0.140005 1.76227,-0.124174 2.38303,0.03286 0.61585,0.155791 1.40999,0.546327 1.90119,0.934965 0.44337,0.350787 1.00536,0.978954 1.2523,1.399744 0.0984,0.167605 0.21849,0.312375 0.26697,0.32171 0.0485,0.0093 0.20796,-0.09948 0.35442,-0.241822 0.83811,-0.814548 2.01253,-1.189142 3.12584,-0.997016 0.88265,0.152321 1.395,0.418792 2.02179,1.051536 0.48228,0.486856 0.69663,0.832467 0.91279,1.471708 l 0.14018,0.414531 0.55665,0.06519 c 1.61406,0.189031 2.89812,1.080123 3.568877,2.476658 0.33461,0.69666 0.41248,1.056773 0.41555,1.921632 0.002,0.617041 -0.0192,0.823913 -0.12229,1.180387 -0.44011,1.522401 -1.529967,2.622336 -3.070517,3.098899 l -0.40614,0.12564 -8.22977,0.0096 c -6.66603,0.0078 -8.299733,-0.0044 -8.597961,-0.06423 z"
         style="fill:#045192;stroke-width:0.05541932"
         inkscape:connector-curvature="0" />
      <path
         id="path931"
         d="m 75.057438,50.966962 c -0.32247,-0.196636 -0.309385,-0.278235 0.37082,-2.312438 0.338777,-1.013133 0.597456,-1.871994 0.574845,-1.90858 -0.02261,-0.03659 -0.799867,-0.43893 -1.727232,-0.894096 -0.927366,-0.455169 -1.734353,-0.875811 -1.793304,-0.934763 -0.164324,-0.164322 -0.147933,-0.565857 0.02877,-0.704856 0.07478,-0.05882 0.884331,-0.485427 1.799012,-0.948019 0.914681,-0.462592 1.678342,-0.865809 1.697024,-0.896038 0.01868,-0.03023 -0.227437,-0.846132 -0.546933,-1.813113 -0.319495,-0.966984 -0.594597,-1.819027 -0.611334,-1.893428 -0.07168,-0.318631 0.262269,-0.647681 0.584413,-0.575832 0.07066,0.01575 0.919641,0.290061 1.886625,0.609557 0.966981,0.319495 1.784677,0.564506 1.817099,0.544469 0.03242,-0.02004 0.443577,-0.805378 0.913679,-1.745201 0.509374,-1.01834 0.905364,-1.744237 0.980051,-1.796549 0.187051,-0.131017 0.501583,-0.112863 0.639583,0.03692 0.06319,0.06858 0.490547,0.877029 0.949687,1.796554 0.45913,0.919522 0.86096,1.688033 0.89294,1.707801 0.032,0.01977 0.89417,-0.241684 1.91597,-0.581003 1.7336,-0.575695 1.87089,-0.612629 2.05338,-0.552399 0.1376,0.04541 0.22318,0.122428 0.28869,0.259808 l 0.0931,0.195264 -0.63571,1.891365 c -0.61261,1.822675 -0.64371,1.898407 -0.85634,2.08533 -0.12136,0.106682 -0.30278,0.279953 -0.40316,0.385042 -0.20442,0.214009 -0.23232,0.201741 -0.37153,-0.163365 -0.36155,-0.948214 -1.23406,-1.878569 -2.22148,-2.368783 -0.68273,-0.338942 -1.23401,-0.461303 -2.078232,-0.461285 -2.551416,5.7e-5 -4.60343,2.052071 -4.603487,4.603487 -1.8e-5,0.857011 0.122404,1.398096 0.476475,2.105935 0.34318,0.686065 0.890083,1.32733 1.425319,1.671244 0.144785,0.09303 0.263242,0.175914 0.263242,0.184184 0,0.0083 -0.06092,0.152781 -0.135371,0.321134 -0.07445,0.168354 -0.176272,0.446794 -0.226262,0.618756 -0.07646,0.263019 -0.12756,0.336164 -0.32184,0.4607 -0.12702,0.08142 -0.323915,0.219232 -0.437546,0.306245 -0.191995,0.147024 -2.208516,0.871601 -2.424218,0.871073 -0.0466,-1.11e-4 -0.162147,-0.04742 -0.256768,-0.105115 z"
         style="fill:#fe7f01;stroke-width:0.05541932"
         inkscape:connector-curvature="0" />
      <path
         id="path929"
         d="m 99.697103,49.934567 c -0.42724,-0.287874 -1.15087,-0.606603 -1.69028,-0.744501 -0.38767,-0.0991 -0.38807,-0.09941 -0.58191,-0.440175 -1.16978,-2.056542 -3.49319,-3.126146 -5.78261,-2.662084 -0.30959,0.06275 -0.76343,0.199918 -1.00853,0.304807 -0.2451,0.104888 -0.46573,0.190706 -0.49028,0.190706 -0.0246,0 -0.21057,-0.15262 -0.41336,-0.339156 -0.70691,-0.650225 -1.5645,-1.144764 -2.54578,-1.468061 l -0.45151,-0.148756 0.1437,-0.171963 c 0.2326,-0.278355 0.66664,-0.628069 1.03401,-0.833133 0.50423,-0.281452 1.07679,-0.418805 1.93379,-0.463899 l 0.73624,-0.03874 0.11791,-0.367403 c 0.199,-0.620084 0.45726,-1.040347 0.935,-1.521499 0.72305,-0.728202 1.5561,-1.07603 2.5771,-1.07603 0.61339,0 1.03134,0.09368 1.57945,0.354019 0.95242,0.452375 1.58054,1.16098 1.91573,2.161195 l 0.1507,0.449718 0.68479,0.03279 c 0.88104,0.04218 1.24747,0.120832 1.793167,0.384893 0.80687,0.390448 1.34173,0.915343 1.72029,1.688257 0.26355,0.538079 0.35793,0.956934 0.35793,1.588366 0,0.708593 -0.0698,1.022165 -0.36402,1.635471 -0.19176,0.399734 -0.32984,0.595165 -0.64651,0.915036 -0.40946,0.413612 -1.02945,0.824526 -1.23269,0.817008 -0.0617,-0.0023 -0.274197,-0.113367 -0.472327,-0.246861 z"
         style="fill:#237ebb;stroke-width:0.05541932"
         inkscape:connector-curvature="0" />
      <path
         id="path4775"
         d="m 79.451927,46.763433 c -1.310002,-1.085189 -1.386065,-3.082459 -0.162549,-4.268186 1.155811,-1.120115 2.948265,-1.118119 4.077835,0.0045 0.50066,0.497586 0.86791,1.279641 0.86791,1.848181 0,0.164467 -0.0177,0.18287 -0.20783,0.215642 -0.91281,0.157371 -1.90343,0.536977 -2.641791,1.01234 -0.397869,0.256151 -1.019262,0.781627 -1.291804,1.092399 -0.145429,0.165828 -0.292874,0.30182 -0.327656,0.302205 -0.03478,4.19e-4 -0.176134,-0.09282 -0.314115,-0.207123 z"
         style="fill:#fe7f01;stroke-width:0.05541932"
         inkscape:connector-curvature="0" />
    </g>
  </g>
</svg>
