<?xml version="1.0" encoding="UTF-8" standalone="no"?>
<!-- Created with Inkscape (http://www.inkscape.org/) -->

<svg
   xmlns:dc="http://purl.org/dc/elements/1.1/"
   xmlns:cc="http://creativecommons.org/ns#"
   xmlns:rdf="http://www.w3.org/1999/02/22-rdf-syntax-ns#"
   xmlns:svg="http://www.w3.org/2000/svg"
   xmlns="http://www.w3.org/2000/svg"
   xmlns:sodipodi="http://sodipodi.sourceforge.net/DTD/sodipodi-0.dtd"
   xmlns:inkscape="http://www.inkscape.org/namespaces/inkscape"
   width="22.663929mm"
   height="18.099606mm"
   viewBox="0 0 22.66393 18.099605"
   version="1.1"
   id="svg5857"
   inkscape:version="0.92.4 (5da689c313, 2019-01-14)"
   sodipodi:docname="partly-cloudy-night.svg">
  <defs
     id="defs5851" />
  <sodipodi:namedview
     id="base"
     pagecolor="#ffffff"
     bordercolor="#666666"
     borderopacity="1.0"
     inkscape:pageopacity="0.0"
     inkscape:pageshadow="2"
     inkscape:zoom="0.98994949"
     inkscape:cx="-8.1404952"
     inkscape:cy="-64.291439"
     inkscape:document-units="mm"
     inkscape:current-layer="layer1"
     showgrid="false"
     fit-margin-top="0"
     fit-margin-left="0"
     fit-margin-right="0"
     fit-margin-bottom="0"
     inkscape:window-width="1920"
     inkscape:window-height="1017"
     inkscape:window-x="-8"
     inkscape:window-y="-8"
     inkscape:window-maximized="1" />
  <metadata
     id="metadata5854">
    <rdf:RDF>
      <cc:Work
         rdf:about="">
        <dc:format>image/svg+xml</dc:format>
        <dc:type
           rdf:resource="http://purl.org/dc/dcmitype/StillImage" />
        <dc:title></dc:title>
      </cc:Work>
    </rdf:RDF>
  </metadata>
  <g
     inkscape:label="Layer 1"
     inkscape:groupmode="layer"
     id="layer1"
     transform="translate(-34.518749,-8.9031384)">
    <g
       id="g950"
       transform="matrix(0.69470564,0,0,0.69470564,-39.52635,-15.26423)">
      <path
         id="path945"
         d="m 112.16213,60.78409 c -0.84908,-0.142971 -1.7936,-0.623414 -2.47676,-1.259839 -0.57817,-0.538616 -1.1201,-1.46177 -1.3445,-2.290308 -0.15217,-0.561828 -0.14798,-1.872758 0.008,-2.40822 0.40359,-1.388172 1.27688,-2.448864 2.52818,-3.070707 0.62655,-0.311373 0.69674,-0.373853 0.69849,-0.621803 0.002,-0.2658 0.24865,-1.107198 0.44872,-1.530022 0.64104,-1.354717 1.6481,-2.341467 2.95008,-2.890573 1.22177,-0.515276 2.7998,-0.560014 4.028,-0.114199 1.16288,0.422102 2.35278,1.406935 2.93905,2.432527 0.10715,0.187448 0.22254,0.316078 0.28353,0.316078 0.0566,0 0.19622,-0.09706 0.31034,-0.215695 0.87867,-0.913465 2.22286,-1.36262 3.4393,-1.14923 0.6338,0.111184 1.07935,0.279861 1.56027,0.590699 0.76139,0.492107 1.36562,1.284629 1.63084,2.139054 0.10484,0.337727 0.16798,0.45202 0.25943,0.469571 0.0665,0.01277 0.36469,0.05397 0.6627,0.09158 1.30735,0.164984 2.52355,0.874352 3.25396,1.897928 0.35581,0.498633 0.71341,1.2781 0.83366,1.817191 0.19954,0.894506 0.0902,2.07281 -0.27378,2.949695 -0.47489,1.144179 -1.59167,2.21143 -2.73072,2.609621 -0.87838,0.30707 -0.61401,0.299345 -9.98377,0.291754 -4.80676,-0.0039 -8.86788,-0.02869 -9.02472,-0.0551 z"
         style="fill:#045192;stroke-width:0.06020548"
         inkscape:connector-curvature="0" />
      <path
         id="path943"
         d="m 133.45901,50.666966 c -0.57976,-0.464292 -1.80103,-1.032821 -2.55825,-1.190926 -0.11562,-0.02414 -0.23754,-0.09691 -0.27092,-0.161712 -0.81057,-1.573542 -2.34662,-2.780528 -3.97225,-3.121291 -0.21996,-0.04611 -0.40788,-0.09359 -0.4176,-0.105521 -0.01,-0.01192 -0.0774,-0.263799 -0.15048,-0.559707 -0.20778,-0.841779 -0.61937,-1.646437 -1.20257,-2.351011 -0.24724,-0.2987 -0.2483,-0.302136 -0.21462,-0.692361 0.10861,-1.257944 0.34184,-2.156939 0.80464,-3.101419 0.45562,-0.929838 0.96338,-1.63756 1.65173,-2.302181 0.65224,-0.62976 1.12911,-0.977925 1.90522,-1.390987 1.26882,-0.675299 2.51544,-0.946173 4.12407,-0.896105 1.11357,0.03466 1.35463,0.09545 1.35463,0.341638 0,0.140493 -0.0755,0.21631 -0.4967,0.498572 -0.27318,0.183086 -0.66506,0.486569 -0.87083,0.674408 -0.81813,0.746811 -1.54988,1.974393 -1.86865,3.13486 -0.1518,0.552612 -0.16519,0.688579 -0.16298,1.65565 0.002,0.959013 0.0172,1.106918 0.16716,1.647574 0.19182,0.691554 0.51174,1.388807 0.92911,2.024959 0.32602,0.49692 1.24621,1.412242 1.76351,1.754184 1.31506,0.869268 2.99743,1.27761 4.4474,1.079464 0.66296,-0.0906 0.78801,-0.06083 0.78801,0.187597 0,0.39088 -1.41711,1.630199 -2.5244,2.207683 -0.71178,0.37122 -1.0777,0.512655 -1.8104,0.699754 -0.97672,0.249409 -1.0646,0.247352 -1.41483,-0.03312 z"
         style="fill:#fe7f01;stroke-width:0.06020548"
         inkscape:connector-curvature="0" />
      <path
         id="path4812"
         d="m 108.56512,50.445773 c -0.46942,-0.273476 -1.1127,-0.889161 -1.39962,-1.33957 -0.38467,-0.603849 -0.54186,-1.140501 -0.5737,-1.958649 -0.0337,-0.865343 0.0476,-1.260271 0.41299,-2.005642 0.35876,-0.731925 0.99214,-1.352693 1.75231,-1.717443 0.69013,-0.331142 1.01052,-0.403644 1.9958,-0.451631 l 0.77402,-0.0377 0.16303,-0.481643 c 0.19916,-0.588367 0.27702,-0.738899 0.63064,-1.219233 0.44236,-0.600857 1.23247,-1.123697 2.10478,-1.392796 0.61293,-0.189081 1.55583,-0.17926 2.18805,0.02279 1.34578,0.430098 2.26257,1.340776 2.68966,2.671749 l 0.12808,0.399134 0.82562,0.03863 c 1.45506,0.06807 2.43865,0.501036 3.18122,1.400337 0.33813,0.409498 0.76479,1.216143 0.81754,1.545658 l 0.0344,0.215169 -0.41254,0.109028 c -0.2269,0.05997 -0.61188,0.19978 -0.8555,0.310699 l -0.44296,0.201671 -0.46012,-0.424546 c -2.48315,-2.291117 -6.24667,-2.573102 -9.13542,-0.684474 -0.66688,0.435998 -1.6336,1.394525 -2.06153,2.044066 -0.45413,0.689298 -0.84896,1.544347 -1.02865,2.227602 -0.0549,0.208774 -0.1187,0.274874 -0.47942,0.496695 -0.22885,0.140732 -0.42624,0.255873 -0.43865,0.255873 -0.0124,0 -0.19694,-0.101595 -0.41008,-0.225771 z"
         style="fill:#237ebb;stroke-width:0.06020548"
         inkscape:connector-curvature="0" />
    </g>
  </g>
</svg>
