<?xml version="1.0" encoding="UTF-8" standalone="no"?>
<!-- Created with Inkscape (http://www.inkscape.org/) -->

<svg
   xmlns:dc="http://purl.org/dc/elements/1.1/"
   xmlns:cc="http://creativecommons.org/ns#"
   xmlns:rdf="http://www.w3.org/1999/02/22-rdf-syntax-ns#"
   xmlns:svg="http://www.w3.org/2000/svg"
   xmlns="http://www.w3.org/2000/svg"
   xmlns:sodipodi="http://sodipodi.sourceforge.net/DTD/sodipodi-0.dtd"
   xmlns:inkscape="http://www.inkscape.org/namespaces/inkscape"
   width="22.501001mm"
   height="22.499979mm"
   viewBox="0 0 22.501002 22.499979"
   version="1.1"
   id="svg5857"
   inkscape:version="0.92.4 (5da689c313, 2019-01-14)"
   sodipodi:docname="sleet.svg">
  <defs
     id="defs5851" />
  <sodipodi:namedview
     id="base"
     pagecolor="#ffffff"
     bordercolor="#666666"
     borderopacity="1.0"
     inkscape:pageopacity="0.0"
     inkscape:pageshadow="2"
     inkscape:zoom="0.35"
     inkscape:cx="-54.326595"
     inkscape:cy="-452.88181"
     inkscape:document-units="mm"
     inkscape:current-layer="layer1"
     showgrid="false"
     fit-margin-top="0"
     fit-margin-left="0"
     fit-margin-right="0"
     fit-margin-bottom="0"
     inkscape:window-width="1920"
     inkscape:window-height="1017"
     inkscape:window-x="-8"
     inkscape:window-y="-8"
     inkscape:window-maximized="1" />
  <metadata
     id="metadata5854">
    <rdf:RDF>
      <cc:Work
         rdf:about="">
        <dc:format>image/svg+xml</dc:format>
        <dc:type
           rdf:resource="http://purl.org/dc/dcmitype/StillImage" />
        <dc:title></dc:title>
      </cc:Work>
    </rdf:RDF>
  </metadata>
  <g
     inkscape:label="Layer 1"
     inkscape:groupmode="layer"
     id="layer1"
     transform="translate(2.635017,-6.508375)">
    <g
       id="g892"
       transform="matrix(0.89132466,0,0,0.89132466,-110.83872,3.3749465)">
      <path
         id="path885"
         d="m 121.88121,28.73674 c -0.26822,-0.07056 -0.4847,-0.353701 -0.4847,-0.633969 0,-0.321816 3.23353,-6.802642 3.47208,-6.958947 0.21849,-0.143158 0.60744,-0.134634 0.81348,0.01783 0.0937,0.0693 0.1991,0.22954 0.24539,0.372946 l 0.0812,0.251431 -1.68077,3.3678 c -0.92442,1.852291 -1.72467,3.407805 -1.77831,3.456704 -0.13648,0.1244 -0.4501,0.183622 -0.66835,0.126208 z"
         style="fill:#237ebb;stroke-width:0.05816707"
         inkscape:connector-curvature="0" />
      <path
         id="path883"
         d="m 134.33287,28.549506 c -0.36953,-0.369525 -0.3953,-0.2994 1.47757,-4.019346 1.53893,-3.056635 1.68538,-3.324151 1.87561,-3.426001 0.27655,-0.14807 0.59776,-0.08933 0.82154,0.150214 0.33352,0.357033 0.34402,0.328846 -1.4884,3.993223 -1.19119,2.382114 -1.69432,3.332595 -1.80113,3.402574 -0.0846,0.05542 -0.26395,0.0971 -0.41781,0.0971 -0.22906,0 -0.29936,-0.02975 -0.46738,-0.197767 z"
         style="fill:#237ebb;stroke-width:0.05816707"
         inkscape:connector-curvature="0" />
      <path
         id="path881"
         d="m 129.44923,27.09427 c -0.0998,-0.07291 -0.11442,-0.165548 -0.12588,-0.79739 -0.0134,-0.738637 -0.0318,-0.86513 -0.12582,-0.86513 -0.0304,0 -0.25371,0.117374 -0.49637,0.260834 -0.71214,0.421031 -1.02008,0.562143 -1.14217,0.523393 -0.14588,-0.0463 -0.57844,-0.774434 -0.57844,-0.973694 0,-0.185337 0.17341,-0.32421 0.88118,-0.70572 0.53178,-0.286636 0.68443,-0.414095 0.59671,-0.498205 -0.029,-0.02784 -0.35381,-0.22587 -0.72171,-0.440065 -0.71179,-0.414397 -0.7539,-0.450671 -0.75528,-0.650626 -9e-4,-0.127872 0.27831,-0.652532 0.45019,-0.845983 0.15031,-0.169156 0.33805,-0.119005 1.03434,0.276293 0.36629,0.207948 0.70199,0.378087 0.74601,0.378087 0.10701,0 0.15199,-0.303609 0.15277,-1.03042 8.9e-4,-0.710722 0.004,-0.714592 0.68371,-0.714592 0.6811,0 0.67984,-0.0018 0.7029,0.954944 0.0166,0.692283 0.0311,0.790028 0.11634,0.789756 0.0535,-1.74e-4 0.39486,-0.170309 0.75858,-0.378086 0.84381,-0.482039 0.92306,-0.48476 1.19264,-0.04097 0.26547,0.436991 0.32257,0.59594 0.2673,0.74388 -0.0269,0.07214 -0.32948,0.283349 -0.74981,0.523503 -0.54902,0.313677 -0.70117,0.426971 -0.68902,0.513042 0.0101,0.07365 0.24718,0.241511 0.71034,0.503612 0.78835,0.446115 0.85467,0.532135 0.67543,0.876024 -0.22727,0.436034 -0.40789,0.682524 -0.52806,0.720664 -0.089,0.02827 -0.319,-0.07354 -0.85195,-0.377261 -0.40147,-0.228795 -0.76634,-0.402018 -0.81084,-0.384942 -0.063,0.02419 -0.0809,0.189212 -0.0809,0.747019 0,0.959164 -0.0112,0.974525 -0.69018,0.974525 -0.34762,0 -0.5449,-0.02617 -0.62201,-0.0825 z"
         style="fill:#237ebb;stroke-width:0.05816707"
         inkscape:connector-curvature="0" />
      <path
         id="path879"
         d="m 142.13781,27.04953 c -0.0718,-0.102471 -0.0919,-0.288644 -0.0919,-0.847296 0,-0.555645 -0.018,-0.722881 -0.0804,-0.746824 -0.0442,-0.01697 -0.37796,0.138785 -0.74164,0.346119 -0.36367,0.207334 -0.71647,0.392784 -0.784,0.41211 -0.17431,0.0499 -0.32884,-0.10381 -0.57113,-0.568092 -0.28553,-0.547141 -0.29161,-0.53877 0.86365,-1.189177 0.28479,-0.160338 0.44085,-0.283958 0.44055,-0.349002 -2.3e-4,-0.06685 -0.21644,-0.225334 -0.64274,-0.471311 -0.35325,-0.203826 -0.68023,-0.408553 -0.72662,-0.454949 -0.13566,-0.135651 -0.0993,-0.330406 0.14081,-0.754467 0.30741,-0.542899 0.37411,-0.545727 1.2345,-0.05231 0.36488,0.209257 0.7072,0.380751 0.76071,0.381097 0.0852,4.41e-4 0.0996,-0.097 0.11634,-0.789437 0.0231,-0.959384 0.0198,-0.954944 0.71705,-0.954944 0.69725,0 0.69393,-0.0045 0.71706,0.954944 0.0168,0.697075 0.0307,0.790069 0.11784,0.790069 0.0543,0 0.39506,-0.171615 0.75714,-0.381364 0.85692,-0.4964 0.92776,-0.493425 1.23656,0.05194 0.36088,0.637337 0.35295,0.655547 -0.50271,1.155079 -0.56448,0.329533 -0.72446,0.449672 -0.71256,0.53513 0.0101,0.07234 0.22509,0.228918 0.62611,0.455895 0.72564,0.410734 0.81433,0.483649 0.81433,0.669523 0,0.298532 -0.47985,1.003819 -0.68295,1.003819 -0.0279,0 -0.37256,-0.185014 -0.76587,-0.411139 -0.39331,-0.226128 -0.75173,-0.397087 -0.79648,-0.379913 -0.0633,0.02429 -0.0815,0.183603 -0.0822,0.716516 -4.4e-4,0.434557 -0.0277,0.738496 -0.0743,0.830706 -0.0697,0.138 -0.10199,0.146266 -0.63425,0.16201 -0.52573,0.01555 -0.56659,0.0084 -0.65281,-0.114736 z"
         style="fill:#237ebb;stroke-width:0.05816707"
         inkscape:connector-curvature="0" />
      <path
         id="path4627"
         d="m 126.3698,19.204051 c -1.2784,-0.03288 -1.28024,-0.03311 -1.83882,-0.235266 -0.69363,-0.25104 -1.10549,-0.497707 -1.6294,-0.975874 -0.97574,-0.890541 -1.50507,-2.099815 -1.50507,-3.438408 0,-1.881697 1.03868,-3.457291 2.82243,-4.281438 0.23921,-0.110524 0.43486,-0.21979 0.43477,-0.242814 -1.3e-4,-0.02302 -0.0283,-0.2706688 -0.0626,-0.5503188 -0.20087,-1.637816 0.5625,-3.5132951 1.89233,-4.6491766 1.14332,-0.976565 2.66165,-1.4476634 4.13509,-1.2830106 1.69631,0.189556 3.11479,1.0925744 4.06385,2.5870749 0.11682,0.1839526 0.24007,0.3344598 0.27391,0.3344598 0.0339,0 0.23554,-0.1570633 0.44823,-0.3490311 0.84554,-0.7631391 1.9886,-1.1320677 3.05506,-0.986049 1.2459,0.1705878 2.27347,0.8505499 2.90426,1.9217823 0.37806,0.6420705 0.47053,1.014776 0.48128,1.9398757 0.0112,0.9219206 -0.006,0.8938526 0.52579,0.9011916 0.6182,0.0085 1.60997,0.3507848 2.20717,0.7616758 1.31452,0.904414 2.06288,2.317695 2.06288,3.895778 0,2.197387 -1.43279,3.99558 -3.64036,4.568773 -0.3764,0.09773 -0.88278,0.104738 -7.87673,0.109061 -4.11096,0.0025 -8.05032,-0.01017 -8.75415,-0.02829 z"
         style="fill:#045192;stroke-width:0.05816707"
         inkscape:connector-curvature="0" />
    </g>
  </g>
</svg>
