<?xml version="1.0" encoding="UTF-8" standalone="no"?>
<!-- Created with Inkscape (http://www.inkscape.org/) -->

<svg
   xmlns:dc="http://purl.org/dc/elements/1.1/"
   xmlns:cc="http://creativecommons.org/ns#"
   xmlns:rdf="http://www.w3.org/1999/02/22-rdf-syntax-ns#"
   xmlns:svg="http://www.w3.org/2000/svg"
   xmlns="http://www.w3.org/2000/svg"
   xmlns:sodipodi="http://sodipodi.sourceforge.net/DTD/sodipodi-0.dtd"
   xmlns:inkscape="http://www.inkscape.org/namespaces/inkscape"
   width="22.466mm"
   height="22.476149mm"
   viewBox="0 0 22.466 22.476149"
   version="1.1"
   id="svg5857"
   inkscape:version="0.92.4 (5da689c313, 2019-01-14)"
   sodipodi:docname="snow.svg">
  <defs
     id="defs5851" />
  <sodipodi:namedview
     id="base"
     pagecolor="#ffffff"
     bordercolor="#666666"
     borderopacity="1.0"
     inkscape:pageopacity="0.0"
     inkscape:pageshadow="2"
     inkscape:zoom="0.35"
     inkscape:cx="-73.991047"
     inkscape:cy="-441.11575"
     inkscape:document-units="mm"
     inkscape:current-layer="layer1"
     showgrid="false"
     fit-margin-top="0"
     fit-margin-left="0"
     fit-margin-right="0"
     fit-margin-bottom="0"
     inkscape:window-width="1920"
     inkscape:window-height="1017"
     inkscape:window-x="-8"
     inkscape:window-y="-8"
     inkscape:window-maximized="1" />
  <metadata
     id="metadata5854">
    <rdf:RDF>
      <cc:Work
         rdf:about="">
        <dc:format>image/svg+xml</dc:format>
        <dc:type
           rdf:resource="http://purl.org/dc/dcmitype/StillImage" />
        <dc:title></dc:title>
      </cc:Work>
    </rdf:RDF>
  </metadata>
  <g
     inkscape:label="Layer 1"
     inkscape:groupmode="layer"
     id="layer1"
     transform="translate(-2.5678692,-9.6453109)">
    <g
       id="g875"
       transform="matrix(0.82565047,0,0,0.82565047,-73.857607,8.6566797)">
      <path
         id="path869"
         d="m 105.60925,28.369598 c -0.15402,-0.08061 -0.15698,-0.09656 -0.17409,-0.936008 -0.0141,-0.692231 -0.0353,-0.860868 -0.11194,-0.890279 -0.054,-0.02067 -0.42428,0.151642 -0.86245,0.40135 -0.42236,0.240697 -0.82995,0.437633 -0.90576,0.437633 -0.0911,0 -0.18809,-0.07963 -0.28613,-0.235037 -0.28758,-0.455804 -0.42733,-0.782242 -0.39317,-0.918344 0.0234,-0.09346 0.27526,-0.275541 0.80409,-0.581456 0.52231,-0.302137 0.76995,-0.480697 0.76995,-0.555181 0,-0.0745 -0.24763,-0.252973 -0.77024,-0.555131 -0.54008,-0.312267 -0.78081,-0.487112 -0.80561,-0.585127 -0.0514,-0.203181 0.41564,-1.033439 0.62351,-1.10843 0.13583,-0.04897 0.27493,0.0087 0.95276,0.394956 0.63372,0.36116 0.8116,0.437505 0.88239,0.378753 0.068,-0.05646 0.0887,-0.26117 0.0887,-0.879252 0,-0.789092 0.003,-0.807769 0.15588,-0.907801 0.19387,-0.127028 1.08179,-0.106627 1.24473,0.02858 0.0868,0.07208 0.10362,0.220623 0.10362,0.917738 0,0.690178 0.0164,0.838035 0.0963,0.868687 0.0562,0.0216 0.42291,-0.149204 0.88238,-0.411059 0.67107,-0.382438 0.80939,-0.439601 0.94516,-0.390621 0.20777,0.07496 0.67488,0.905199 0.62362,1.108429 -0.0247,0.09787 -0.26624,0.273923 -0.80561,0.587166 -0.42369,0.246051 -0.77914,0.491175 -0.7899,0.544717 -0.0133,0.06622 0.18711,0.216724 0.62676,0.470695 0.77475,0.447535 0.99103,0.61163 0.99103,0.751874 0,0.05803 -0.11986,0.316765 -0.26637,0.574991 -0.19422,0.34232 -0.30545,0.475036 -0.41063,0.489949 -0.0883,0.01248 -0.38773,-0.117405 -0.77141,-0.33465 -0.34495,-0.195311 -0.70161,-0.39373 -0.79259,-0.440927 -0.28806,-0.149446 -0.32871,-0.04441 -0.32871,0.849142 0,0.563949 -0.0231,0.818112 -0.0784,0.862842 -0.13457,0.108901 -1.05961,0.155078 -1.23785,0.0618 z"
         style="fill:#237ebb;stroke-width:0.06267597"
         inkscape:connector-curvature="0" />
      <path
         id="path867"
         d="m 95.207252,26.571632 c -0.0357,-0.06665 -0.0649,-0.445133 -0.0649,-0.841001 0,-0.748945 -0.0272,-0.91828 -0.14773,-0.917717 -0.0394,1.92e-4 -0.38898,0.181631 -0.77686,0.403211 -0.78827,0.450322 -0.89286,0.494097 -1.04288,0.436528 -0.13088,-0.05025 -0.60029,-0.885803 -0.60142,-1.070556 -7.1e-4,-0.171695 0.14107,-0.280275 0.92883,-0.709654 0.59666,-0.325226 0.74122,-0.446544 0.6698,-0.562102 -0.0167,-0.02716 -0.29186,-0.197008 -0.61128,-0.377456 -0.76324,-0.431154 -0.98818,-0.605044 -0.98818,-0.763921 0,-0.13179 0.31675,-0.743 0.48951,-0.944584 0.15829,-0.184683 0.37738,-0.126223 1.11569,0.29771 0.39024,0.224067 0.74977,0.407395 0.79898,0.407395 0.14004,0 0.16554,-0.144899 0.16554,-0.940784 0,-0.933178 0.005,-0.939494 0.71327,-0.939494 0.75549,0 0.75282,-0.0036 0.79095,1.012553 0.0264,0.702959 0.0473,0.838071 0.13254,0.854331 0.0557,0.01062 0.41612,-0.163711 0.801,-0.387407 0.38488,-0.223703 0.75142,-0.42312 0.81453,-0.443151 0.16623,-0.05275 0.34264,0.125588 0.60656,0.613206 0.30101,0.556136 0.27165,0.619572 -0.4853,1.048623 -0.75542,0.428188 -0.92919,0.550618 -0.92919,0.654686 0,0.04683 0.3455,0.280388 0.76778,0.519011 0.96652,0.546163 0.98516,0.582554 0.61641,1.203252 -0.39562,0.665949 -0.40848,0.667175 -1.34973,0.128781 -0.43614,-0.249458 -0.83199,-0.436493 -0.88269,-0.417039 -0.0742,0.02844 -0.0919,0.190955 -0.0919,0.842312 0,1.018848 0.004,1.014492 -0.80185,1.014492 -0.50198,0 -0.58061,-0.01497 -0.63749,-0.121225 z"
         style="fill:#237ebb;stroke-width:0.06267597"
         inkscape:connector-curvature="0" />
      <path
         id="path865"
         d="m 115.79857,26.594372 c -0.0794,-0.0794 -0.0985,-0.255902 -0.0985,-0.910766 0,-0.655962 -0.0177,-0.819074 -0.0919,-0.847552 -0.0507,-0.01946 -0.44655,0.167581 -0.88268,0.417039 -0.94125,0.538394 -0.95411,0.537168 -1.34974,-0.128781 -0.36771,-0.618952 -0.34951,-0.654423 0.61641,-1.200942 0.42228,-0.23893 0.76778,-0.473126 0.76778,-0.520445 0,-0.104958 -0.1725,-0.226661 -0.92919,-0.655562 -0.70068,-0.397159 -0.76818,-0.501889 -0.57175,-0.887122 0.30064,-0.589632 0.42798,-0.745559 0.6086,-0.74521 0.0958,1.93e-4 0.48793,0.181062 0.88827,0.409762 0.39418,0.225179 0.76084,0.400958 0.81479,0.390622 0.082,-0.01568 0.10074,-0.152455 0.11428,-0.832825 0.0203,-1.017343 0.0326,-1.033382 0.79583,-1.033382 0.70887,0 0.72354,0.01932 0.72354,0.955618 0,0.781344 0.0258,0.92466 0.16669,0.92466 0.0498,0 0.38446,-0.169613 0.74361,-0.376921 0.83899,-0.484282 0.92149,-0.514969 1.08212,-0.402455 0.15994,0.112023 0.57729,0.850453 0.57729,1.021407 0,0.154115 -0.21939,0.322189 -0.98593,0.755303 -0.31819,0.179792 -0.59561,0.354524 -0.61648,0.388298 -0.0646,0.104524 0.0834,0.22247 0.74474,0.59346 0.75575,0.423947 0.85767,0.504719 0.85767,0.679678 0,0.141357 -0.46112,0.973525 -0.58434,1.054547 -0.12295,0.08084 -0.31998,0.0014 -1.05101,-0.423434 -0.38495,-0.223732 -0.73553,-0.406789 -0.77909,-0.406789 -0.12851,0 -0.15527,0.1582 -0.15527,0.918052 0,0.395868 -0.0292,0.774322 -0.0649,0.841001 -0.0571,0.106648 -0.1357,0.121225 -0.65362,0.121225 -0.45166,0 -0.61167,-0.02295 -0.68723,-0.09849 z"
         style="fill:#237ebb;stroke-width:0.06267597"
         inkscape:connector-curvature="0" />
      <path
         id="path4590"
         d="m 96.334502,17.976626 c -1.85078,-0.48451 -3.27944,-1.979605 -3.66215,-3.832432 -0.27882,-1.349854 -0.0167,-2.693236 0.75131,-3.850004 0.53096,-0.7997769 1.173,-1.3377999 2.13354,-1.7879289 l 0.53057,-0.2486324 -0.0496,-0.387478 c -0.43392,-3.3871639 2.02167,-6.4041788 5.421338,-6.6608225 0.57516,-0.043412 1.35852,0.033789 1.99453,0.1965869 0.48982,0.1253742 1.33475,0.5325268 1.80605,0.8702916 0.5186,0.3716602 1.21081,1.1010091 1.56562,1.6496104 0.16164,0.2499144 0.32344,0.4543996 0.35958,0.4543996 0.0361,0 0.2478,-0.1668686 0.47037,-0.370812 0.68143,-0.6243975 1.55913,-1.008283 2.52898,-1.106106 0.46072,-0.046477 1.31771,0.089034 1.82318,0.2882723 1.09572,0.4318952 2.03975,1.4441131 2.41918,2.5939376 0.1436,0.4351814 0.16874,0.6245757 0.17889,1.3479296 0.0136,0.9685635 -0.0356,0.9006445 0.69989,0.9669735 0.90638,0.08175 1.93608,0.5166954 2.67745,1.1309564 0.71802,0.594915 1.34298,1.5698649 1.61331,2.5168229 0.20877,0.731309 0.20842,2.054603 -7.1e-4,2.720644 -0.48048,1.530146 -1.53391,2.711792 -2.92214,3.277815 -0.92482,0.37707 -0.35872,0.357973 -10.53163,0.355222 -9.066228,-0.0021 -9.352398,-0.0064 -9.807498,-0.125246 z"
         style="fill:#045192;stroke-width:0.06267597"
         inkscape:connector-curvature="0" />
    </g>
  </g>
</svg>
