<?xml version="1.0" encoding="UTF-8" standalone="no"?>
<!-- Created with Inkscape (http://www.inkscape.org/) -->

<svg
   xmlns:dc="http://purl.org/dc/elements/1.1/"
   xmlns:cc="http://creativecommons.org/ns#"
   xmlns:rdf="http://www.w3.org/1999/02/22-rdf-syntax-ns#"
   xmlns:svg="http://www.w3.org/2000/svg"
   xmlns="http://www.w3.org/2000/svg"
   xmlns:sodipodi="http://sodipodi.sourceforge.net/DTD/sodipodi-0.dtd"
   xmlns:inkscape="http://www.inkscape.org/namespaces/inkscape"
   width="22.622036mm"
   height="18.071659mm"
   viewBox="0 0 22.622037 18.071659"
   version="1.1"
   id="svg5857"
   inkscape:version="0.92.4 (5da689c313, 2019-01-14)"
   sodipodi:docname="temp-high-warning.svg">
  <defs
     id="defs5851" />
  <sodipodi:namedview
     id="base"
     pagecolor="#ffffff"
     bordercolor="#666666"
     borderopacity="1.0"
     inkscape:pageopacity="0.0"
     inkscape:pageshadow="2"
     inkscape:zoom="0.98994949"
     inkscape:cx="-49.290075"
     inkscape:cy="-25.240644"
     inkscape:document-units="mm"
     inkscape:current-layer="layer1"
     showgrid="false"
     fit-margin-top="0"
     fit-margin-left="0"
     fit-margin-right="0"
     fit-margin-bottom="0"
     inkscape:window-width="1920"
     inkscape:window-height="1017"
     inkscape:window-x="-8"
     inkscape:window-y="-8"
     inkscape:window-maximized="1" />
  <metadata
     id="metadata5854">
    <rdf:RDF>
      <cc:Work
         rdf:about="">
        <dc:format>image/svg+xml</dc:format>
        <dc:type
           rdf:resource="http://purl.org/dc/dcmitype/StillImage" />
        <dc:title></dc:title>
      </cc:Work>
    </rdf:RDF>
  </metadata>
  <g
     inkscape:label="Layer 1"
     inkscape:groupmode="layer"
     id="layer1"
     transform="translate(-45.406243,-19.263273)">
    <path
       inkscape:connector-curvature="0"
       id="path4923"
       d="m 62.17543,37.271763 c -1.714619,-0.267489 -3.275599,-1.541499 -3.88196,-3.168269 -0.181229,-0.486241 -0.27574,-0.89516 -0.316679,-1.37034 -0.10033,-1.165631 0.198279,-2.298141 0.85525,-3.242441 l 0.246879,-0.35483 0.0221,-3.31869 c 0.0219,-3.27473 0.0232,-3.32313 0.11547,-3.65267 0.40738,-1.45671 1.60015,-2.57314 3.03505,-2.84076 0.47982,-0.0896 1.32194,-0.0631 1.75421,0.0549 1.35486,0.37003 2.40083,1.41682 2.78367,2.78579 0.0922,0.32955 0.0936,0.37791 0.11546,3.65378 l 0.0221,3.3198 0.15101,0.20762 c 0.3641,0.50054 0.67651,1.16108 0.83363,1.76256 0.12321,0.471591 0.15556,1.48709 0.0645,2.02179 -0.16969,0.9956 -0.61829,1.900051 -1.29741,2.6159 -1.16307,1.22591 -2.82212,1.788061 -4.503131,1.525791 z m 1.50871,-2.12882 c 0.567631,-0.12607 1.185491,-0.5113 1.5879,-0.990029 0.208151,-0.247621 0.51259,-0.859281 0.595981,-1.197391 0.0323,-0.131319 0.0553,-0.43511 0.0536,-0.70967 -0.002,-0.39659 -0.0214,-0.5357 -0.10907,-0.800089 -0.15354,-0.46365 -0.3854,-0.850221 -0.70754,-1.179611 l -0.282691,-0.28904 -0.0133,-3.57234 c -0.0147,-3.97439 0.002,-3.7393 -0.304049,-4.22769 -0.176251,-0.28106 -0.541711,-0.57146 -0.88668,-0.70459 -0.313871,-0.12112 -0.85228,-0.13183 -1.169081,-0.0232 -0.504839,0.17304 -0.937849,0.59035 -1.145359,1.10384 l -0.096,0.23761 -0.0123,3.58629 -0.0123,3.586301 -0.30353,0.322659 c -1.038051,1.10344 -1.08863,2.74891 -0.119611,3.89059 0.73089,0.86112 1.80303,1.21545 2.92418,0.96641 z m -1.128899,-1.28905 c -0.433791,-0.1194 -0.82477,-0.45846 -1.02757,-0.891059 -0.0981,-0.209381 -0.11109,-0.287841 -0.11109,-0.675231 0,-0.4005 0.0112,-0.45988 0.12271,-0.68825 0.1496,-0.3047 0.4273,-0.59029 0.73351,-0.75438 l 0.22914,-0.1228 0.0209,-3.86137 c 0.0161,-2.99387 0.0325,-3.882 0.0733,-3.95317 0.17125,-0.29936 0.64212,-0.29936 0.81337,0 0.0407,0.071 0.0572,0.9593 0.0733,3.95317 l 0.0209,3.86137 0.229601,0.122931 c 0.29758,0.159309 0.589019,0.460979 0.73754,0.763409 0.106949,0.21794 0.118229,0.282341 0.118229,0.67909 0,0.38739 -0.013,0.46585 -0.111099,0.675231 -0.343281,0.732279 -1.146901,1.104669 -1.922911,0.891059 z m -9.525981,1.10052 c -0.0748,-0.0588 -0.36296,-0.58949 -0.86235,-1.58798 -0.41252,-0.82479 -0.77573,-1.509479 -0.80709,-1.52153 -0.0314,-0.012 -0.77767,0.214181 -1.6584,0.502711 -0.88074,0.28853 -1.64541,0.52456 -1.69927,0.52451 -0.22701,-1.71e-4 -0.4239,-0.209571 -0.4239,-0.450811 0,-0.0619 0.2366,-0.82258 0.52576,-1.690069 0.28916,-0.867491 0.51534,-1.604381 0.502611,-1.637531 -0.0128,-0.0332 -0.697971,-0.39781 -1.522761,-0.81033 -0.99848,-0.49939 -1.52917,-0.78757 -1.58799,-0.86235 -0.11866,-0.15087 -0.11967,-0.42736 -0.002,-0.55367 0.0475,-0.0509 0.76207,-0.43065 1.58798,-0.84372 0.8259,-0.41307 1.51204,-0.77817 1.524771,-0.81133 0.0128,-0.0332 -0.213461,-0.77004 -0.502611,-1.63753 -0.28917,-0.86749 -0.52575,-1.64017 -0.52575,-1.71709 0,-0.1818 0.22863,-0.4237 0.40045,-0.4237 0.064,0 0.83821,0.23606 1.72017,0.52457 0.88198,0.2885 1.62903,0.51478 1.66014,0.50285 0.0312,-0.0118 0.403551,-0.71403 0.82762,-1.56019 0.82304,-1.64225 0.82007,-1.63795 1.12784,-1.63795 0.0771,0 0.18748,0.0385 0.24901,0.0868 0.0724,0.0568 0.37052,0.60571 0.863,1.58823 0.41387,0.82571 0.77934,1.5116 0.812131,1.52419 0.0328,0.0126 0.66255,-0.17809 1.399449,-0.42371 0.73691,-0.24564 1.34836,-0.43808 1.358791,-0.42765 0.009,0.009 -0.0183,0.17676 -0.0638,0.36961 -0.151091,0.63899 -0.16827,1.03803 -0.168621,3.91531 l -3.17e-4,2.81326 -0.16184,0.25625 c -0.53476,0.84673 -0.87318,1.87926 -0.94856,2.89404 -0.0158,0.212371 -0.0407,0.38614 -0.0555,0.38614 -0.0149,0 -0.30726,-0.0939 -0.64993,-0.20871 -0.34267,-0.11481 -0.65435,-0.20873 -0.69263,-0.20873 -0.0499,0 -0.27747,0.42008 -0.8038,1.48379 -0.43439,0.87789 -0.78458,1.53417 -0.85757,1.607171 -0.15443,0.154419 -0.39412,0.1693 -0.5648,0.0349 z m 0.903701,-4.35399 c 0.736799,-0.140959 1.397369,-0.506039 1.911179,-1.0562 0.5459,-0.58455 0.838761,-1.22256 0.93014,-2.02634 0.26287,-2.31228 -1.837479,-4.24403 -4.139609,-3.80732 -1.2952,0.24569 -2.355741,1.22034 -2.726891,2.50605 -0.13734,0.47575 -0.13817,1.39433 -0.002,1.86669 0.50827,1.75909 2.26137,2.85491 4.02687,2.51712 z m -0.907021,-1.26223 c -0.64362,-0.0948 -1.20745,-0.44845 -1.56241,-0.98 -0.47291,-0.7082 -0.47272,-1.70246 4.77e-4,-2.41108 0.35124,-0.52599 0.84713,-0.84285 1.48821,-0.95094 0.33778,-0.0569 0.4095,-0.0566 0.72523,0.003 0.72416,0.13634 1.25644,0.5401 1.57399,1.19396 0.20755,0.42737 0.27138,0.80777 0.21188,1.26278 -0.0491,0.37462 -0.29209,0.89493 -0.55355,1.184671 -0.21987,0.24364 -0.69877,0.53869 -1.00295,0.61793 -0.25474,0.0663 -0.69924,0.10667 -0.88088,0.0799 z"
       style="fill:#dc3545;stroke-width:0.04174463" />
  </g>
</svg>
