<?xml version="1.0" encoding="UTF-8" standalone="no"?>
<!-- Created with Inkscape (http://www.inkscape.org/) -->

<svg
   xmlns:dc="http://purl.org/dc/elements/1.1/"
   xmlns:cc="http://creativecommons.org/ns#"
   xmlns:rdf="http://www.w3.org/1999/02/22-rdf-syntax-ns#"
   xmlns:svg="http://www.w3.org/2000/svg"
   xmlns="http://www.w3.org/2000/svg"
   xmlns:sodipodi="http://sodipodi.sourceforge.net/DTD/sodipodi-0.dtd"
   xmlns:inkscape="http://www.inkscape.org/namespaces/inkscape"
   width="22.674492mm"
   height="20.092419mm"
   viewBox="0 0 22.674493 20.092419"
   version="1.1"
   id="svg5857"
   inkscape:version="0.92.4 (5da689c313, 2019-01-14)"
   sodipodi:docname="temp-low-warning.svg">
  <defs
     id="defs5851" />
  <sodipodi:namedview
     id="base"
     pagecolor="#ffffff"
     bordercolor="#666666"
     borderopacity="1.0"
     inkscape:pageopacity="0.0"
     inkscape:pageshadow="2"
     inkscape:zoom="0.98994949"
     inkscape:cx="-50.887353"
     inkscape:cy="-27.67682"
     inkscape:document-units="mm"
     inkscape:current-layer="layer1"
     showgrid="false"
     fit-margin-top="0"
     fit-margin-left="0"
     fit-margin-right="0"
     fit-margin-bottom="0"
     inkscape:window-width="1920"
     inkscape:window-height="1017"
     inkscape:window-x="-8"
     inkscape:window-y="-8"
     inkscape:window-maximized="1" />
  <metadata
     id="metadata5854">
    <rdf:RDF>
      <cc:Work
         rdf:about="">
        <dc:format>image/svg+xml</dc:format>
        <dc:type
           rdf:resource="http://purl.org/dc/dcmitype/StillImage" />
        <dc:title></dc:title>
      </cc:Work>
    </rdf:RDF>
  </metadata>
  <g
     inkscape:label="Layer 1"
     inkscape:groupmode="layer"
     id="layer1"
     transform="translate(-45.828856,-16.597942)">
    <path
       inkscape:connector-curvature="0"
       id="path4960"
       d="m 62.323629,36.677784 c -0.0384,-0.008 -0.22661,-0.0424 -0.41835,-0.0729 -1.09104,-0.175471 -2.16525,-0.73387 -2.96306,-1.540331 -0.52796,-0.53369 -0.75773,-0.85316 -1.08104,-1.50303 -0.91984,-1.84909 -0.7726,-3.87525 0.41043,-5.64755 l 0.26374,-0.3951 0.008,-3.5791 c 0.009,-3.93279 0.0132,-3.96911 0.298039,-4.65435 0.41813,-1.00544 1.16522,-1.81068 2.10922,-2.27343 0.68844,-0.33747 1.03219,-0.41124 1.929,-0.414 0.66539,-10e-4 0.8162,0.0119 1.13881,0.10434 1.77525,0.50938 2.98814,1.96557 3.18259,3.82102 0.026,0.24834 0.0468,1.87997 0.0472,3.72856 l 9.26e-4,3.28698 0.3108,0.47436 c 1.1139,1.70009 1.24883,3.74238 0.36526,5.52894 -0.2841,0.57445 -0.54275,0.93467 -1.03818,1.44575 -0.80929,0.834861 -1.75089,1.355 -2.89162,1.59726 -0.31753,0.0675 -1.50613,0.13326 -1.67335,0.0927 z m 1.3243,-2.428169 c 1.08788,-0.269671 1.92377,-1.017431 2.30499,-2.062011 0.43894,-1.20272 0.13043,-2.55179 -0.79097,-3.45883 l -0.28183,-0.27744 -5.29e-4,-3.90594 c -5.29e-4,-3.16013 -0.0129,-3.95163 -0.0641,-4.1453 -0.26317,-0.98835 -1.2466,-1.63132 -2.24272,-1.46626 -0.7812,0.12945 -1.4234,0.7089 -1.62504,1.46626 -0.0517,0.19371 -0.0638,0.98783 -0.0641,4.16264 l -5.29e-4,3.92325 -0.186121,0.15933 c -0.42273,0.36184 -0.80603,0.9909 -0.97474,1.5997 -0.12653,0.45657 -0.12765,1.14859 -0.002,1.63734 0.44201,1.72827 2.209689,2.79337 3.92875,2.367261 z m -1.14431,-1.402831 c -0.52786,-0.1121 -1.10382,-0.6037 -1.29845,-1.10817 -0.14601,-0.37844 -0.14699,-0.9567 -0.002,-1.32617 0.13493,-0.34441 0.48094,-0.72209 0.83388,-0.91021 0.32004,-0.17058 0.33177,-0.19766 0.33265,-0.76795 6.88e-4,-0.4055 0.002,-0.41362 0.15867,-0.5694 0.20438,-0.20439 0.4595,-0.2191 0.67372,-0.0388 0.17793,0.14972 0.23674,0.35907 0.23707,0.84394 l 3.44e-4,0.38211 0.24923,0.1179 c 0.31403,0.14856 0.69285,0.54459 0.85674,0.89568 0.10805,0.23119 0.12484,0.32718 0.12484,0.70898 0,0.38178 -0.0168,0.47777 -0.12484,0.70896 -0.17283,0.37023 -0.5444,0.74971 -0.90046,0.919641 -0.31227,0.14903 -0.81658,0.212469 -1.14107,0.143529 z m -10.50544,-0.048 c -0.10451,-0.0845 -0.11088,-0.122141 -0.13298,-0.80181 -0.029,-0.88612 -0.0484,-0.901391 -0.53329,-0.412521 -0.29298,0.29551 -0.34185,0.32693 -0.50852,0.32693 -0.16488,0 -0.21051,-0.0284 -0.43119,-0.26727 -0.40484,-0.43844 -0.4105,-0.42503 0.61308,-1.45378 l 0.85992,-0.86426 v -1.14196 c 0,-0.9431 -0.012,-1.15175 -0.0677,-1.19814 -0.0371,-0.031 -0.0842,-0.0472 -0.10451,-0.0361 -0.59523,0.32378 -2.01086,1.17194 -2.02723,1.21461 -0.0123,0.0321 -0.15326,0.54849 -0.31314,1.14736 -0.36794,1.37815 -0.38902,1.40664 -0.94077,1.27143 -0.55476,-0.13596 -0.62647,-0.28133 -0.45107,-0.9143 0.11939,-0.43079 0.11851,-0.50003 -0.005,-0.50003 -0.0545,0 -0.34304,0.13595 -0.64117,0.30213 -0.29812,0.16617 -0.58704,0.30213 -0.64199,0.30213 -0.15607,0 -0.31149,-0.17222 -0.59086,-0.65483 -0.26032,-0.44967 -0.29717,-0.57955 -0.2105,-0.74149 0.0261,-0.0489 0.29686,-0.2358 0.60166,-0.41554 0.30482,-0.17974 0.56764,-0.34852 0.58404,-0.37507 0.0573,-0.093 -0.0741,-0.17033 -0.46497,-0.2736 -0.64293,-0.16984 -0.72226,-0.29463 -0.55438,-0.87204 0.087,-0.29978 0.20242,-0.43247 0.37581,-0.43247 0.0685,0 0.60727,0.12803 1.19691,0.28449 0.58964,0.15647 1.11425,0.28459 1.16579,0.28471 0.15707,3.44e-4 2.06769,-1.12691 2.06769,-1.21994 0,-0.0563 -0.2926,-0.24929 -0.96449,-0.63626 -0.53048,-0.30552 -0.99796,-0.56785 -1.03884,-0.58297 -0.0409,-0.0153 -0.57346,0.1066 -1.1835,0.2705 -0.61002,0.16389 -1.15584,0.29799 -1.21293,0.29799 -0.17324,0 -0.33874,-0.18662 -0.41222,-0.46481 -0.14802,-0.56048 -0.0725,-0.67868 0.53564,-0.83877 0.43784,-0.11527 0.51811,-0.15851 0.47976,-0.25846 -0.0142,-0.0373 -0.27409,-0.2141 -0.57727,-0.39288 -0.30318,-0.17879 -0.57259,-0.36499 -0.5987,-0.41379 -0.0861,-0.16095 -0.0501,-0.29602 0.1918,-0.72073 0.29425,-0.5164 0.43537,-0.67559 0.5989,-0.67559 0.068,0 0.37992,0.14494 0.69324,0.3221 0.31333,0.17717 0.59893,0.31089 0.6347,0.29716 0.0867,-0.0335 0.0821,-0.118 -0.0278,-0.50306 -0.1826,-0.63847 -0.11412,-0.7864 0.43072,-0.93043 0.35054,-0.0927 0.48633,-0.0643 0.60902,0.1265 0.0378,0.0587 0.18621,0.54595 0.33002,1.08283 0.14382,0.53686 0.28259,1.04273 0.30838,1.12417 0.0411,0.13011 0.16621,0.21686 1.03202,0.7162 0.54183,0.31248 1.00174,0.57709 1.02203,0.58803 0.0203,0.009 0.0675,-0.005 0.10451,-0.0363 0.056,-0.0464 0.0677,-0.25503 0.0677,-1.19813 v -1.14196 l -0.863,-0.86718 c -1.04196,-1.04722 -1.05048,-1.07041 -0.55893,-1.52349 0.17067,-0.15732 0.24501,-0.19464 0.38774,-0.19464 0.15701,0 0.21254,0.0362 0.50072,0.32693 0.48468,0.48887 0.50441,0.47361 0.53329,-0.41252 0.03,-0.9235 -10e-4,-0.89053 0.85697,-0.89053 0.60008,0 0.61684,0.002 0.72694,0.11986 0.10703,0.1139 0.1134,0.1542 0.12856,0.81344 0.0136,0.59491 0.0265,0.69357 0.0895,0.69357 0.0405,0 0.22457,-0.14642 0.40912,-0.32537 0.29152,-0.28267 0.35792,-0.32537 0.50597,-0.32537 0.1415,0 0.21355,0.0408 0.42436,0.24015 0.27968,0.26451 0.3358,0.39375 0.25531,0.58805 -0.0294,0.071 -0.41875,0.49399 -0.86517,0.93986 l -0.81171,0.81068 v 1.16919 c 0,1.25969 0.004,1.28224 0.23825,1.16097 0.0608,-0.0316 0.80483,-0.45865 1.65363,-0.9492 0.84879,-0.49054 1.55474,-0.89191 1.56876,-0.89191 0.0139,0 0.0253,0.44449 0.0251,0.98774 l -3.44e-4,0.98775 -1.2198,0.70345 c -1.02611,0.59178 -1.21977,0.72008 -1.21977,0.80815 0,0.0881 0.19338,0.21607 1.21981,0.80721 0.95668,0.55095 1.21974,0.72256 1.21938,0.79547 -1.8e-4,0.0513 -0.0889,0.24024 -0.19723,0.42024 -0.10825,0.18 -0.26998,0.48781 -0.35945,0.68401 -0.0894,0.19621 -0.17543,0.35745 -0.19101,0.35833 -0.0156,8.21e-4 -0.58838,-0.32234 -1.27286,-0.71827 -0.68453,-0.39592 -1.26791,-0.72261 -1.29643,-0.72597 -0.16771,-0.0199 -0.16808,-0.0173 -0.16808,1.17701 v 1.17211 l 0.85992,0.86425 c 1.02452,1.0297 1.01456,1.0056 0.59717,1.443171 -0.23419,0.245529 -0.28267,0.27544 -0.44652,0.27544 -0.16493,0 -0.21888,-0.034 -0.52534,-0.331171 -0.216,-0.20944 -0.36666,-0.321509 -0.4099,-0.30491 -0.0548,0.0209 -0.0713,0.15971 -0.0835,0.6994 -0.0142,0.63819 -0.0208,0.67941 -0.12779,0.79299 -0.11002,0.117051 -0.12694,0.1198 -0.72693,0.1198 -0.53514,0 -0.62839,-0.0117 -0.72399,-0.0887 z"
       style="fill:#237ebb;stroke-width:0.04648186" />
  </g>
</svg>
