<?xml version="1.0" encoding="UTF-8" standalone="no"?>
<!-- Created with Inkscape (http://www.inkscape.org/) -->

<svg
   xmlns:dc="http://purl.org/dc/elements/1.1/"
   xmlns:cc="http://creativecommons.org/ns#"
   xmlns:rdf="http://www.w3.org/1999/02/22-rdf-syntax-ns#"
   xmlns:svg="http://www.w3.org/2000/svg"
   xmlns="http://www.w3.org/2000/svg"
   xmlns:sodipodi="http://sodipodi.sourceforge.net/DTD/sodipodi-0.dtd"
   xmlns:inkscape="http://www.inkscape.org/namespaces/inkscape"
   width="22.439001mm"
   height="22.41662mm"
   viewBox="0 0 22.439002 22.41662"
   version="1.1"
   id="svg5857"
   inkscape:version="0.92.4 (5da689c313, 2019-01-14)"
   sodipodi:docname="thunderstorm.svg">
  <defs
     id="defs5851" />
  <sodipodi:namedview
     id="base"
     pagecolor="#ffffff"
     bordercolor="#666666"
     borderopacity="1.0"
     inkscape:pageopacity="0.0"
     inkscape:pageshadow="2"
     inkscape:zoom="0.98994949"
     inkscape:cx="-11.192949"
     inkscape:cy="-64.355729"
     inkscape:document-units="mm"
     inkscape:current-layer="layer1"
     showgrid="false"
     fit-margin-top="0"
     fit-margin-left="0"
     fit-margin-right="0"
     fit-margin-bottom="0"
     inkscape:window-width="1920"
     inkscape:window-height="1017"
     inkscape:window-x="-8"
     inkscape:window-y="-8"
     inkscape:window-maximized="1" />
  <metadata
     id="metadata5854">
    <rdf:RDF>
      <cc:Work
         rdf:about="">
        <dc:format>image/svg+xml</dc:format>
        <dc:type
           rdf:resource="http://purl.org/dc/dcmitype/StillImage" />
        <dc:title></dc:title>
      </cc:Work>
    </rdf:RDF>
  </metadata>
  <g
     inkscape:label="Layer 1"
     inkscape:groupmode="layer"
     id="layer1"
     transform="translate(-35.326378,-4.5691131)">
    <g
       id="g958"
       transform="matrix(0.87468734,0,0,0.87468734,-54.797953,-26.626275)">
      <path
         id="path954"
         d="m 114.57084,61.085429 c -0.13558,-0.135578 -0.20146,-0.257103 -0.20146,-0.371626 0,-0.09359 0.36136,-1.795404 0.80303,-3.781802 0.74994,-3.372877 0.79619,-3.616633 0.69971,-3.687188 -0.0792,-0.0579 -0.5981,-0.07555 -2.22056,-0.07555 h -2.11722 l -0.17795,-0.149733 c -0.0979,-0.08236 -0.19383,-0.222338 -0.21324,-0.311077 -0.0194,-0.08874 0.15226,-1.677597 0.38149,-3.530793 0.43536,-3.519676 0.45753,-3.630451 0.75385,-3.76546 0.2069,-0.09427 4.52114,-0.08835 4.72929,0.0065 0.17954,0.0818 0.32423,0.328549 0.32423,0.552902 0,0.08555 -0.25439,1.0126 -0.56532,2.060099 -0.31093,1.047498 -0.55757,1.958719 -0.54809,2.024929 0.0169,0.117596 0.0633,0.121065 2.00802,0.150004 1.60474,0.02388 2.01052,0.04603 2.09257,0.114191 0.16325,0.135632 0.2858,0.42277 0.25218,0.590871 -0.0605,0.302301 -5.0216,10.043276 -5.20118,10.212261 -0.25255,0.23767 -0.53687,0.223972 -0.79935,-0.03852 z"
         style="fill:#fe7f01;stroke-width:0.05925277"
         inkscape:connector-curvature="0" />
      <path
         id="path4849"
         d="m 107.17017,51.532352 c -0.0652,-0.01283 -0.26516,-0.05248 -0.4444,-0.0881 -1.35453,-0.269183 -2.57286,-1.239384 -3.25483,-2.591939 -0.3101,-0.61502 -0.43303,-1.178523 -0.43487,-1.993471 -0.003,-1.306809 0.37517,-2.279111 1.26496,-3.25268 0.34776,-0.3805 1.15123,-0.93709 1.63883,-1.135266 0.18206,-0.07399 0.351,-0.170251 0.37543,-0.21391 0.0244,-0.04366 0.0213,-0.199306 -0.007,-0.345882 -0.18255,-0.946508 0.0858,-2.448991 0.60218,-3.371946 0.75655,-1.352152 1.8816,-2.261934 3.35288,-2.711321 0.47506,-0.145107 0.61041,-0.15954 1.52851,-0.163004 1.11403,-0.0042 1.40194,0.04972 2.20184,0.412399 1.00357,0.455017 1.79739,1.13186 2.41208,2.05664 0.18954,0.285154 0.37209,0.51846 0.40567,0.51846 0.0336,0 0.23005,-0.158093 0.43661,-0.35132 0.42855,-0.400886 0.93569,-0.698458 1.53563,-0.901055 0.34939,-0.117984 0.52686,-0.139347 1.1258,-0.13551 0.60419,0.0038 0.78227,0.02827 1.18506,0.162382 0.61257,0.203958 0.99713,0.429265 1.45642,0.853269 0.9206,0.84988 1.33951,1.949655 1.25344,3.290755 -0.0338,0.52675 -0.0911,0.478487 0.67066,0.564969 1.05017,0.119223 1.9084,0.513023 2.68494,1.23197 1.36078,1.259878 1.86087,3.132983 1.30916,4.903521 -0.28182,0.904425 -1.02137,1.884739 -1.84987,2.45209 -0.90147,0.617331 -1.74496,0.846033 -3.12029,0.846033 h -0.88906 l 0.0346,-0.370434 c 0.0387,-0.413942 -0.0719,-0.947696 -0.2813,-1.358158 -0.19636,-0.384899 -0.70979,-0.858595 -1.1636,-1.073552 -0.39446,-0.186854 -0.41841,-0.190462 -1.39385,-0.209929 -0.76744,-0.01532 -0.99248,-0.03737 -0.99248,-0.09725 0,-0.04259 0.12298,-0.539135 0.2733,-1.10343 0.24814,-0.93152 0.27103,-1.073476 0.24864,-1.541714 -0.0213,-0.447065 -0.0537,-0.574479 -0.24277,-0.957042 -0.33205,-0.671865 -0.8889,-1.126389 -1.60999,-1.314162 -0.29103,-0.07578 -0.77054,-0.09181 -2.72563,-0.09109 -2.52523,8.98e-4 -2.82583,0.0279 -3.36247,0.30168 -0.60303,0.307641 -1.14654,1.037483 -1.28733,1.728661 -0.0346,0.170097 -0.22275,1.522469 -0.41799,3.005272 -0.19525,1.482799 -0.36981,2.782657 -0.38792,2.888569 l -0.0329,0.192575 -0.9898,-0.0069 c -0.5444,-0.0038 -1.04313,-0.01738 -1.10831,-0.03021 z"
         style="fill:#045192;stroke-width:0.05925277"
         inkscape:connector-curvature="0" />
    </g>
  </g>
</svg>
