<?xml version="1.0" encoding="UTF-8" standalone="no"?>
<!-- Created with Inkscape (http://www.inkscape.org/) -->

<svg
   xmlns:dc="http://purl.org/dc/elements/1.1/"
   xmlns:cc="http://creativecommons.org/ns#"
   xmlns:rdf="http://www.w3.org/1999/02/22-rdf-syntax-ns#"
   xmlns:svg="http://www.w3.org/2000/svg"
   xmlns="http://www.w3.org/2000/svg"
   xmlns:sodipodi="http://sodipodi.sourceforge.net/DTD/sodipodi-0.dtd"
   xmlns:inkscape="http://www.inkscape.org/namespaces/inkscape"
   width="22.663567mm"
   height="19.805414mm"
   viewBox="0 0 22.663567 19.805414"
   version="1.1"
   id="svg5857"
   inkscape:version="0.92.4 (5da689c313, 2019-01-14)"
   sodipodi:docname="wind.svg">
  <defs
     id="defs5851" />
  <sodipodi:namedview
     id="base"
     pagecolor="#ffffff"
     bordercolor="#666666"
     borderopacity="1.0"
     inkscape:pageopacity="0.0"
     inkscape:pageshadow="2"
     inkscape:zoom="0.35"
     inkscape:cx="-85.783516"
     inkscape:cy="-486.88283"
     inkscape:document-units="mm"
     inkscape:current-layer="layer1"
     showgrid="false"
     fit-margin-top="0"
     fit-margin-left="0"
     fit-margin-right="0"
     fit-margin-bottom="0"
     inkscape:window-width="1920"
     inkscape:window-height="1017"
     inkscape:window-x="-8"
     inkscape:window-y="-8"
     inkscape:window-maximized="1" />
  <metadata
     id="metadata5854">
    <rdf:RDF>
      <cc:Work
         rdf:about="">
        <dc:format>image/svg+xml</dc:format>
        <dc:type
           rdf:resource="http://purl.org/dc/dcmitype/StillImage" />
        <dc:title></dc:title>
      </cc:Work>
    </rdf:RDF>
  </metadata>
  <g
     inkscape:label="Layer 1"
     inkscape:groupmode="layer"
     id="layer1"
     transform="translate(-5.68796,-0.20683751)">
    <g
       id="g903"
       transform="translate(-136.90633,-4.3802025)">
      <path
         id="path898"
         d="m 159.56267,24.338862 c -1.6475,-0.278013 -3.10629,-1.45478 -3.73478,-3.012751 -0.10322,-0.255848 -0.18879,-0.562841 -0.19291,-0.69203 -0.006,-0.198673 0.0114,-0.241923 0.12319,-0.299595 0.15568,-0.08036 1.43778,-0.09568 1.63794,-0.01956 0.0892,0.03389 0.20039,0.184924 0.35485,0.481838 0.53051,1.019704 1.47245,1.611306 2.56329,1.609911 0.86839,-0.0012 1.50047,-0.258015 2.10562,-0.85582 0.41213,-0.407121 0.69295,-0.908877 0.81003,-1.447291 0.0885,-0.406899 0.0421,-1.199426 -0.0918,-1.568783 -0.23331,-0.643537 -0.80747,-1.283418 -1.45726,-1.624083 -0.67463,-0.353697 -0.67809,-0.354015 -3.85561,-0.354015 h -2.85433 l -0.10199,-0.237948 c -0.17638,-0.411469 -0.51676,-0.942438 -0.86822,-1.35435 l -0.33907,-0.397382 3.6471,0.01829 c 3.53806,0.01773 3.65907,0.02162 4.04726,0.130096 1.10767,0.309529 1.77158,0.687278 2.49903,1.421884 1.00466,1.014558 1.47123,2.217416 1.39477,3.595936 -0.10623,1.915466 -1.26341,3.573756 -2.98138,4.272456 -0.83497,0.339581 -1.89466,0.470088 -2.70571,0.333224 z"
         style="fill:#237ebb;stroke-width:0.05223759"
         inkscape:connector-curvature="0" />
      <path
         id="path896"
         d="m 148.78445,22.880686 c -0.55154,-0.131676 -0.81768,-0.230481 -1.19896,-0.445113 -0.89767,-0.505321 -1.64905,-1.446252 -1.95626,-2.449782 -0.13806,-0.450962 -0.14012,-0.712166 -0.007,-0.881481 0.16731,-0.212699 0.3585,-0.260668 0.96052,-0.240983 0.49434,0.01617 0.56112,0.03026 0.68213,0.144055 0.0738,0.06937 0.18295,0.257431 0.24262,0.417902 0.2418,0.650268 0.64183,1.09757 1.22607,1.370971 0.63547,0.297372 1.49869,0.248628 2.06814,-0.116782 0.58085,-0.372736 0.95094,-0.945143 1.03286,-1.597499 0.12449,-0.991438 -0.34236,-1.860581 -1.23693,-2.302813 l -0.39723,-0.19637 -3.59037,-0.02612 c -3.54321,-0.02577 -3.59232,-0.02756 -3.7378,-0.135628 -0.23281,-0.172937 -0.27658,-0.313272 -0.2754,-0.883004 0.002,-0.572843 0.0451,-0.704426 0.28821,-0.864723 0.1475,-0.09723 0.28066,-0.100997 3.58097,-0.101328 3.77518,-3.95e-4 3.95813,0.01184 4.75111,0.31766 1.25861,0.485369 2.2431,1.662192 2.52949,3.023652 0.10098,0.480029 0.10055,1.253584 -7.9e-4,1.76677 -0.10408,0.526125 -0.50698,1.344208 -0.88493,1.79683 -0.5277,0.631984 -1.40103,1.181839 -2.17645,1.370309 -0.5622,0.136647 -1.40552,0.151507 -1.89989,0.03348 z"
         style="fill:#237ebb;stroke-width:0.05223759"
         inkscape:connector-curvature="0" />
      <path
         id="path4664"
         d="m 142.8668,12.87075 c -0.21101,-0.147796 -0.27251,-0.347504 -0.27251,-0.884868 0,-0.346046 0.0245,-0.548933 0.0792,-0.65468 0.17198,-0.332563 -0.36003,-0.311676 7.9497,-0.31211 4.88297,-1.97e-4 7.68433,-0.01929 7.90353,-0.05368 0.9791,-0.153649 1.73363,-0.912676 1.88708,-1.8983229 0.23556,-1.5130332 -1.16356,-2.8053809 -2.67283,-2.468873 -0.71869,0.1602365 -1.25399,0.6104817 -1.56692,1.3179486 -0.24955,0.5641837 -0.27223,0.5999631 -0.43296,0.6830805 -0.11543,0.059691 -0.29348,0.074125 -0.75063,0.060844 l -0.59932,-0.017417 -0.15231,-0.1705957 c -0.18856,-0.2112047 -0.19417,-0.378239 -0.0316,-0.9397104 0.4112,-1.4196727 1.74464,-2.6144173 3.22244,-2.8872508 0.46161,-0.085222 1.25134,-0.075411 1.71272,0.021276 0.47259,0.099037 1.23842,0.4594656 1.66795,0.7849995 0.62213,0.4715025 1.16949,1.282024 1.43347,2.1226658 0.10693,0.3405586 0.12231,0.4946105 0.12231,1.2253325 0,0.803882 -0.006,0.853217 -0.16317,1.2917999 -0.44046,1.230849 -1.34311,2.169138 -2.49674,2.595307 -0.74448,0.275021 -0.4359,0.265781 -8.87638,0.265781 -7.02597,0 -7.8589,-0.0085 -7.96312,-0.08152 z"
         style="fill:#045192;stroke-width:0.05223759"
         inkscape:connector-curvature="0" />
    </g>
  </g>
</svg>
